<svg width="60" height="60" viewBox="0 0 60 60" fill="none" xmlns="http://www.w3.org/2000/svg">
<path d="M20.6667 23.381H14C13.448 23.381 13 22.933 13 22.381C13 21.829 13.448 21.381 14 21.381H20.6667C21.2187 21.381 21.6667 21.829 21.6667 22.381C21.6667 22.933 21.2187 23.381 20.6667 23.381Z" fill="#0C8543"/>
<path d="M39.3333 23.381H46C46.552 23.381 47 22.933 47 22.381C47 21.829 46.552 21.381 46 21.381H39.3333C38.7813 21.381 38.3333 21.829 38.3333 22.381C38.3333 22.933 38.7813 23.381 39.3333 23.381Z" fill="#0C8543"/>
<path d="M33.3333 23.381H26.6667C26.1147 23.381 25.6667 22.933 25.6667 22.381C25.6667 21.829 26.1147 21.381 26.6667 21.381H33.3333C33.8853 21.381 34.3333 21.829 34.3333 22.381C34.3333 22.933 33.8853 23.381 33.3333 23.381Z" fill="#0C8543"/>
<path fill-rule="evenodd" clip-rule="evenodd" d="M2.66667 7.71436H57.3333C58.8 7.71436 60 8.91435 60 10.381V15.0477C60 16.5144 58.8 17.7144 57.3333 17.7144H56.6667V49.7144C56.6667 51.181 55.4667 52.381 54 52.381H6C4.53333 52.381 3.33333 51.181 3.33333 49.7144V17.7144H2.66667C1.2 17.7144 0 16.5144 0 15.0477V10.381C0 8.91435 1.2 7.71436 2.66667 7.71436ZM41 34.0477V30.7144H19V34.0477H41ZM41 36.0477H19V39.381H41V36.0477ZM41 41.381H19V49.0477H41V41.381ZM52.4433 39.361L53.3333 40.251V17.7144H6.66667V49.0477H17V30.7144H14C13.448 30.7144 13 30.2664 13 29.7144C13 29.1624 13.448 28.7144 14 28.7144H46C46.552 28.7144 47 29.1624 47 29.7144C47 30.2664 46.552 30.7144 46 30.7144H43V35.041L43.0007 35.0477L43 35.0544V49.0484H46.8313L45.8233 48.0397C45.628 47.8444 45.628 47.527 45.8233 47.3324C46.0187 47.137 46.3353 47.137 46.5307 47.3324L48.2453 49.0477H51.46L48.152 45.739C47.9567 45.5437 47.9567 45.227 48.152 45.0317C48.3473 44.8364 48.664 44.8364 48.8593 45.0317L52.8747 49.0477H53.3333V46.2924L49.2933 42.2537C49.098 42.0584 49.098 41.7417 49.2933 41.5464C49.4887 41.351 49.8053 41.351 50.0007 41.5464L53.3333 44.8784V41.665L51.736 40.0684C51.5407 39.873 51.5407 39.5564 51.736 39.361C51.9313 39.1657 52.248 39.1657 52.4433 39.361ZM3.33333 14.381H56.6667V11.0477H3.33333V14.381Z" fill="#0C8543"/>
</svg>
