<svg width="60" height="60" viewBox="0 0 60 60" fill="none" xmlns="http://www.w3.org/2000/svg">
<path fill-rule="evenodd" clip-rule="evenodd" d="M35.3704 41.9424C35.0024 42.6271 34.459 43.1684 33.829 43.5624C32.899 44.1391 31.8004 44.4271 30.6184 44.5431V45.5931C30.6184 46.1451 30.1704 46.5931 29.6184 46.5931C29.0664 46.5931 28.6184 46.1451 28.6184 45.5931V44.5797C27.163 44.4684 25.9157 43.9957 24.985 43.2084C23.909 42.3071 23.303 40.9817 23.3097 39.5524C23.3097 39.0371 23.7277 38.6191 24.243 38.6191C24.7584 38.6191 25.1764 39.0371 25.1764 39.5524C25.183 40.4791 25.5264 41.2144 26.1904 41.7837C26.7417 42.2504 27.5597 42.5844 28.6184 42.6911V35.6304C28.5992 35.6255 28.5801 35.6207 28.5609 35.6159C28.5308 35.6083 28.5007 35.6008 28.4706 35.5933C28.3777 35.5701 28.2844 35.5468 28.1917 35.5224C27.155 35.2451 26.121 34.9257 25.225 34.3404C24.715 34.0057 24.2504 33.5731 23.909 33.0164C23.5177 32.3804 23.3077 31.5997 23.3097 30.7244C23.3104 29.6251 23.6997 28.3597 24.6837 27.3497C25.5537 26.4524 26.877 25.8231 28.6184 25.6971V24.7297C28.6184 24.1777 29.0664 23.7297 29.6184 23.7297C30.1704 23.7297 30.6184 24.1777 30.6184 24.7297V25.7517C31.5857 25.8624 32.4457 26.0911 33.179 26.4484C34.2284 26.9571 35.029 27.7357 35.4797 28.6844C35.781 29.3151 35.927 30.0111 35.927 30.7244C35.927 31.2397 35.509 31.6577 34.9937 31.6577C34.4784 31.6577 34.0604 31.2397 34.0604 30.7244C34.0604 30.2597 33.969 29.8517 33.7964 29.4891C33.6224 29.1264 33.3664 28.8044 32.999 28.5184C32.4704 28.1057 31.683 27.7771 30.6197 27.6271V34.2091L30.7076 34.2322C30.825 34.263 30.9423 34.2939 31.0597 34.3264C32.1084 34.6231 33.157 34.9897 34.0544 35.6484C34.5644 36.0244 35.021 36.5057 35.3504 37.1057C35.7284 37.7911 35.929 38.6157 35.9277 39.5524C35.9284 40.4504 35.7404 41.2597 35.3704 41.9424ZM25.5964 32.1804C25.8524 32.5291 26.2477 32.8237 26.7924 33.0811C27.3037 33.3264 27.9344 33.5204 28.6197 33.7024V27.5717C28.0817 27.6217 27.625 27.7277 27.245 27.8724C26.713 28.0757 26.3204 28.3477 26.019 28.6551C25.421 29.2637 25.177 30.0577 25.1777 30.7244C25.1824 31.4097 25.3424 31.8297 25.5964 32.1804ZM33.615 37.8397C33.343 37.4304 32.9464 37.1017 32.4077 36.8157C31.9064 36.5464 31.2897 36.3351 30.6197 36.1451V42.6604C31.1957 42.5917 31.7224 42.4797 32.1617 42.3117C32.923 42.0184 33.423 41.6177 33.7284 41.0564C33.9324 40.6777 34.0604 40.1984 34.061 39.5524C34.0584 38.7691 33.8837 38.2517 33.615 37.8397Z" fill="#0C8543"/>
<path d="M14.7037 29.601C14.197 29.381 13.6084 29.6137 13.3884 30.1204C13.119 30.7417 12.8844 31.377 12.691 32.0244C12.533 32.5537 12.8337 33.111 13.363 33.269C13.8924 33.427 14.4497 33.1264 14.6077 32.597C14.777 32.0284 14.983 31.4677 15.223 30.9157C15.443 30.4097 15.2104 29.821 14.7037 29.601Z" fill="#0C8543"/>
<path d="M15.289 26.7337C17.015 24.2624 19.2757 22.1511 21.751 20.5864C22.2177 20.2911 22.835 20.4304 23.131 20.8984C23.4257 21.3651 23.2857 21.9824 22.819 22.2771C20.5664 23.6991 18.489 25.6424 16.9297 27.8784C16.613 28.3317 15.9904 28.4424 15.537 28.1264C15.0837 27.8097 14.973 27.1871 15.289 26.7337Z" fill="#0C8543"/>
<path fill-rule="evenodd" clip-rule="evenodd" d="M53.6191 36.9277C53.6191 39.697 53.1084 42.767 52.2817 44.697C53.9117 46.0317 54.9524 48.0557 54.9524 50.321C54.9524 54.3377 51.6891 57.593 47.6637 57.593C45.3624 57.593 43.3131 56.525 41.9771 54.8624C38.3697 56.5944 34.1411 57.593 29.6191 57.593C25.0971 57.593 20.8684 56.5944 17.2604 54.8624C15.9244 56.525 13.8751 57.593 11.5731 57.593C7.54838 57.593 4.28572 54.3377 4.28572 50.321C4.28572 48.0544 5.32638 46.0304 6.95638 44.6957C6.13038 42.7677 5.61838 39.6957 5.61905 36.9263C5.62172 26.3797 14.6571 16.487 23.8031 13.317C23.7939 13.2911 23.7843 13.2652 23.7748 13.2394C23.7449 13.1582 23.7149 13.0769 23.6957 12.993L21.5444 3.52702C21.2897 2.40969 21.7557 1.71436 22.6244 1.71436C22.8684 1.71436 23.1431 1.76836 23.4424 1.88369L27.1311 3.30302C27.8151 3.56636 28.7177 3.69769 29.6197 3.69769C30.5217 3.69769 31.4244 3.56636 32.1084 3.30302L35.7971 1.88369C36.0971 1.76836 36.3717 1.71436 36.6151 1.71436C37.4837 1.71369 37.9497 2.40969 37.695 3.52702L35.5437 12.993C35.5236 13.0807 35.4923 13.1655 35.4609 13.2503C35.4527 13.2725 35.4444 13.2948 35.4364 13.317C44.5817 16.487 53.6191 26.3797 53.6191 36.9277ZM26.9284 12.181L27.0271 12.2597H32.2111L32.3097 12.181L33.6504 6.28036L33.305 6.41302C31.9777 6.92369 30.5677 7.03036 29.6191 7.03036C28.6704 7.03036 27.2604 6.92369 25.9351 6.41369L25.5877 6.28036L26.9284 12.181ZM11.5724 54.2604C12.7777 54.2604 13.903 53.719 14.6617 52.775C14.8397 52.5537 15.0437 52.3624 15.2617 52.1984C14.4231 51.6157 13.5871 50.949 12.7731 50.2057C11.5404 49.075 10.4797 47.881 9.61972 46.6824C9.45972 46.8977 9.28105 47.1004 9.06705 47.2764C8.14638 48.0297 7.61838 49.1403 7.61838 50.3217C7.61838 52.4937 9.39172 54.2604 11.5724 54.2604ZM18.2604 51.687C18.4097 51.7337 18.5577 51.7884 18.7024 51.8577C21.9771 53.429 25.7517 54.2597 29.6177 54.2597C30.3991 54.2597 31.1737 54.217 31.9437 54.1497L31.7531 52.7837C31.7157 52.5103 31.9064 52.2577 32.1797 52.219C32.4531 52.1817 32.7057 52.3717 32.7444 52.6457L32.9397 54.045C33.6804 53.9524 34.4144 53.8324 35.1357 53.679L34.7784 51.7284C34.729 51.457 34.909 51.1963 35.181 51.1464C35.4524 51.097 35.7131 51.277 35.7624 51.549L36.1097 53.4464C36.8597 53.255 37.5951 53.033 38.3131 52.7757L37.6057 50.855C37.5104 50.5957 37.6431 50.309 37.9024 50.213C38.1617 50.1177 38.4484 50.2503 38.5444 50.5097L39.2464 52.415C39.3251 52.3856 39.4044 52.354 39.4842 52.3221L39.5104 52.3117C39.7984 52.1904 40.0851 52.0643 40.3664 51.9317C40.6451 51.7963 40.9264 51.651 41.2124 51.4903L39.6477 48.921C39.5037 48.6857 39.5784 48.3784 39.8144 48.2344C40.0504 48.0903 40.3577 48.165 40.5017 48.401L42.0684 50.973C42.7091 50.5637 43.357 50.0937 43.9991 49.5704L41.7357 46.5404C41.5704 46.3197 41.6157 46.0064 41.8364 45.841C42.0577 45.6757 42.3711 45.721 42.5364 45.9417L44.7611 48.9204C44.7924 48.8922 44.8241 48.865 44.8557 48.8378C44.8966 48.8027 44.9375 48.7676 44.9777 48.7304C47.2257 46.6777 48.8224 44.3764 49.529 42.4964C49.9857 40.9804 50.2857 38.8504 50.2857 36.9277C50.2857 31.901 47.735 26.523 43.2884 22.1717C39.1397 18.1137 33.9024 15.593 29.6191 15.593C25.3357 15.593 20.0991 18.1137 15.951 22.171C11.5044 26.5224 8.95372 31.9004 8.95238 36.927C8.95172 39.2597 9.39172 41.915 10.0204 43.3837C10.056 43.4679 10.0821 43.5538 10.1082 43.6397C10.1157 43.6646 10.1233 43.6895 10.1311 43.7143C10.9757 45.321 12.3417 47.1023 14.1244 48.7297C15.4857 49.9777 16.9131 50.9724 18.2604 51.687ZM44.5751 52.7743C45.3337 53.7183 46.4591 54.2597 47.6637 54.2597C49.8451 54.2597 51.6191 52.493 51.6191 50.321C51.6191 49.1397 51.0911 48.0303 50.1704 47.2757C49.9237 47.0737 49.7204 46.8384 49.5457 46.5857C48.6744 47.8164 47.5931 49.0437 46.3277 50.2043C45.5351 50.9283 44.7224 51.5784 43.9057 52.1497C44.1511 52.3244 44.3791 52.5304 44.5751 52.7743Z" fill="#0C8543"/>
</svg>
