<svg width="60" height="60" viewBox="0 0 60 60" fill="none" xmlns="http://www.w3.org/2000/svg">
<path d="M60 20.7774C59.9987 19.7708 59.6989 18.7401 59.0168 17.8751L54.3686 12.0105C53.9126 11.4351 53.3296 11.0039 52.7 10.7175C52.0691 10.4318 51.3871 10.2863 50.6964 10.2856C49.8787 10.2856 49.0371 10.4931 48.2879 10.953L43.7554 13.7333C43.5905 13.8357 43.3292 13.9447 43.0228 14.019C42.7163 14.0941 42.366 14.1358 42.0243 14.1352C41.4931 14.1391 40.9879 14.0269 40.7166 13.8918L36.2785 11.773C35.4449 11.379 34.5541 11.2289 33.6699 11.2263C33.0337 11.2263 32.3989 11.3079 31.7833 11.4749C31.169 11.6432 30.5734 11.895 30.0289 12.2714L29.8368 12.4045C29.4499 12.2153 28.9633 11.9759 28.4281 11.713C27.4336 11.2355 26.3427 11.0645 25.2405 11.0574C24.2446 11.0619 23.2501 11.2068 22.3241 11.5903L19.3013 12.8618C18.9284 13.0249 18.2157 13.1586 17.5111 13.1534C16.8071 13.1586 16.0944 13.0249 15.7221 12.8618L12.6967 11.5897C12.0472 11.3177 11.3711 11.2055 10.7077 11.2055C9.94583 11.2061 9.19662 11.3535 8.49261 11.6334C7.79127 11.9165 7.12914 12.334 6.58934 12.9277L1.08028 19.0108C0.359658 19.8054 -0.00131929 20.81 1.02809e-05 21.7957C-0.00264885 22.9712 0.510563 24.1546 1.49311 24.9811L6.07413 28.8326L4.13297 30.8803L4.13563 30.8822C3.34985 31.6977 2.95564 32.7519 2.95696 33.7904C2.95564 34.902 3.40636 36.0293 4.29451 36.8597L4.78911 37.3229C5.14344 37.6549 5.55028 37.9008 5.97309 38.0907C5.82883 38.5225 5.74174 38.9687 5.74174 39.4143C5.74041 40.5265 6.18981 41.6545 7.07928 42.4849L7.57388 42.9487C8.40752 43.7289 9.49178 44.1184 10.5548 44.1171C10.8885 44.1177 11.2222 44.0753 11.5506 43.9983C11.7727 44.5078 12.0997 44.984 12.5338 45.3878L13.0298 45.853C13.8634 46.6338 14.9477 47.0226 16.0106 47.0213C16.5804 47.022 17.1547 46.9104 17.6919 46.6886C17.9046 47.0839 18.1812 47.4545 18.5282 47.778L19.0254 48.2432C19.8577 49.0234 20.942 49.4128 22.0063 49.4115C23.1384 49.4128 24.2879 48.9718 25.1341 48.1003L26.8207 46.3651L29.2903 48.5896L29.281 48.5817C30.1094 49.3385 31.1757 49.7155 32.222 49.7142C33.3721 49.7155 34.5381 49.2595 35.3877 48.3639L35.8538 47.8707C36.0851 47.626 36.2692 47.3573 36.4314 47.0781L36.8689 47.4754C37.6972 48.2308 38.7622 48.6052 39.8072 48.6039C40.9599 48.6059 42.126 48.1505 42.9756 47.2536L43.4416 46.7617C43.9089 46.2692 44.2154 45.6879 44.3982 45.0799C44.5305 45.093 44.6615 45.1158 44.7944 45.1158C45.9472 45.1178 47.1132 44.6624 47.9628 43.7648L48.4275 43.2736L48.4288 43.2723C49.1986 42.4595 49.5815 41.4131 49.5802 40.3876C49.5802 40.293 49.5722 40.1991 49.5662 40.1045C50.2815 39.8957 50.953 39.505 51.4954 38.9322L51.9614 38.439C52.7326 37.6249 53.1155 36.5798 53.1142 35.5537C53.1155 34.4754 52.6881 33.3872 51.8544 32.5653L51.3857 32.0401L58.7934 23.9641C59.6257 23.0508 59.9973 21.9033 60 20.7774ZM31.0833 15.5331L31.9482 14.9336C32.109 14.8208 32.3663 14.7001 32.6728 14.6172C32.9806 14.5331 33.3336 14.4868 33.6713 14.4874C34.1426 14.4842 34.58 14.5833 34.8253 14.7053L39.2634 16.8241C40.1423 17.2384 41.0836 17.3923 42.0249 17.3962C42.6299 17.3962 43.2348 17.3277 43.8245 17.1849C44.4115 17.0407 44.9839 16.8248 45.5177 16.4993L50.0502 13.7183C50.2257 13.6107 50.4491 13.5467 50.697 13.5467C50.9051 13.5467 51.1205 13.5931 51.3046 13.6772C51.4888 13.7614 51.6384 13.8781 51.7447 14.0132L56.3929 19.8771C56.5578 20.08 56.6774 20.4153 56.6761 20.7774C56.6787 21.1838 56.5252 21.5726 56.3244 21.7839L55.6231 22.5478L54.5036 21.4506C54.3088 21.2594 53.993 21.2594 53.7982 21.4506C53.6035 21.6417 53.6035 21.9516 53.7982 22.1427L54.9536 23.2765L53.4359 24.9322L51.2402 22.7775C51.0454 22.5863 50.7296 22.5863 50.5348 22.7775C50.34 22.9686 50.34 23.2785 50.5348 23.4696L52.7678 25.6608L51.2488 27.3165L49.4725 25.5728C49.2777 25.3816 48.9619 25.3816 48.7672 25.5728C48.5724 25.7639 48.5724 26.0738 48.7672 26.2649L50.5814 28.0452L49.0996 29.6597L46.2549 27.0653C45.1049 26.019 43.2608 24.5362 41.9897 23.6353L36.8882 20.0298C36.3842 19.6736 35.8325 19.4316 35.2654 19.2717C34.699 19.1132 34.1153 19.0375 33.5297 19.0369C32.5378 19.0408 31.5327 19.2489 30.6252 19.7806L28.7831 20.8726C28.6116 20.9737 28.3989 21.0318 28.1649 21.0318C27.9568 21.0318 27.7401 20.9842 27.5559 20.8967C27.3705 20.81 27.2209 20.6906 27.1158 20.5497L26.7083 20.0108L26.707 20.0095C26.5747 19.8334 26.5122 19.6351 26.5109 19.4224C26.5135 19.1073 26.6538 18.8092 26.9124 18.6194L31.0833 15.5331ZM6.99286 34.992L6.95231 34.9535L6.94965 34.9516L6.94832 34.9509C6.60795 34.6319 6.43777 34.2059 6.43644 33.7702C6.43777 33.3598 6.58735 32.9613 6.89248 32.6462L11.6876 27.7138C12.012 27.3798 12.4461 27.2121 12.8915 27.2108C13.3083 27.2115 13.7158 27.3596 14.0369 27.6577L14.0761 27.6949L14.0788 27.6975C14.4192 28.0158 14.5893 28.4418 14.5907 28.8789C14.5893 29.2892 14.4384 29.6891 14.1333 30.0035L9.34221 34.934C9.01779 35.268 8.58236 35.4363 8.13695 35.4369C7.71947 35.4363 7.31196 35.2895 6.99286 34.992ZM13.2498 39.488L12.2307 40.5363C11.9063 40.871 11.4722 41.0386 11.0268 41.0393C10.6086 41.0386 10.2011 40.8906 9.88134 40.5918L9.37079 40.1149C9.02909 39.7966 8.85891 39.3706 8.85824 38.9335C8.85957 38.5238 9.00915 38.1239 9.31429 37.8095L15.7128 31.2247C16.0372 30.8907 16.4713 30.7237 16.9167 30.7224C17.3349 30.7237 17.7424 30.8705 18.0622 31.1699L18.5727 31.6474C18.9131 31.9664 19.0833 32.3918 19.0846 32.8288C19.0846 33.2385 18.9337 33.6391 18.6286 33.9535L17.6108 35.0005C17.5875 35.0233 17.5603 35.0396 17.537 35.0631L13.3209 39.3993C13.2937 39.4273 13.2757 39.46 13.2498 39.488ZM19.282 41.8032L17.6666 43.4667C17.3422 43.8007 16.9068 43.9683 16.4614 43.9696C16.0445 43.9683 15.6357 43.8209 15.3159 43.5215L14.8187 43.0564C14.477 42.7374 14.3068 42.3114 14.3061 41.8743C14.3075 41.5025 14.4371 41.1417 14.6877 40.8436L19.0567 36.347C19.3724 36.0619 19.7693 35.9125 20.1808 35.9118C20.599 35.9125 21.0065 36.0606 21.3276 36.36L21.8235 36.8245C22.1639 37.1428 22.3341 37.5681 22.3354 38.0052C22.3341 38.4071 22.1885 38.7991 21.8953 39.1096C21.8887 39.1175 19.3206 41.7556 19.3206 41.7556C19.3066 41.7699 19.296 41.7875 19.282 41.8032ZM25.7431 42.751L23.1916 45.3774C22.8672 45.7114 22.4318 45.8791 21.9877 45.8804C21.5696 45.8791 21.162 45.7316 20.841 45.4322L20.8204 45.4126C20.4787 45.093 20.3085 44.667 20.3078 44.2299C20.3091 43.8392 20.4494 43.4602 20.726 43.1536C20.726 43.1536 23.3346 40.4652 23.3412 40.4587C23.663 40.1404 24.0851 39.9786 24.5199 39.9773C24.938 39.9786 25.3455 40.1254 25.6666 40.4248L25.6886 40.4463C26.0289 40.7647 26.1991 41.19 26.2004 41.6264C26.1984 42.0361 26.0482 42.436 25.7431 42.751ZM49.2478 36.4559L49.0258 36.6901C48.7014 37.0326 48.2599 37.2061 47.8066 37.2074C47.4236 37.2061 47.0507 37.0769 46.7429 36.8238L40.3962 31.0492C39.994 30.6813 39.3625 30.7041 38.9875 31.1001C38.6126 31.4954 38.6359 32.1152 39.0394 32.4824L45.9026 38.728C46.2516 39.0477 46.4285 39.4808 46.4298 39.9244C46.4285 40.3276 46.2842 40.7209 45.9884 41.0341L45.5104 41.539C45.1847 41.8821 44.7432 42.0556 44.2912 42.057C43.881 42.0556 43.4795 41.9134 43.1617 41.6238L36.2998 35.3691C35.8963 35.0012 35.2648 35.024 34.8898 35.42C34.5155 35.8159 34.5395 36.4357 34.943 36.8023L40.9546 42.282C41.2923 42.5997 41.4652 43.0237 41.4665 43.4602C41.4652 43.862 41.3196 44.256 41.0251 44.5678L40.5445 45.0747C40.2187 45.4185 39.7773 45.592 39.3226 45.5933C38.9124 45.5927 38.5109 45.4505 38.1918 45.1615L31.9255 39.4593C31.522 39.092 30.8905 39.1155 30.5169 39.5115C30.1433 39.9075 30.1665 40.5272 30.5701 40.8945L33.7577 43.7981C34.1107 44.1197 34.2889 44.5548 34.2889 44.9977C34.2889 45.3957 34.1459 45.7819 33.8567 46.0891C33.5363 46.427 33.1009 46.5973 32.6515 46.5986C32.24 46.5973 31.8358 46.4544 31.5154 46.1628L27.9382 42.9428C28.1084 42.5188 28.1941 42.07 28.1941 41.6244C28.1941 40.6818 27.8152 39.73 27.0647 39.0281L27.0593 39.0229L27.0374 39.0027L27.0427 39.0079C26.3374 38.347 25.422 38.0176 24.5199 38.0189C24.456 38.0189 24.3916 38.0339 24.3277 38.0372C24.3277 38.0261 24.3304 38.015 24.3304 38.0033C24.3317 37.0606 23.9528 36.1088 23.2009 35.4069L22.705 34.9418C22.1765 34.448 21.5323 34.1401 20.8629 34.0161C21.0005 33.6306 21.0783 33.2287 21.0783 32.8282C21.0796 31.8855 20.7007 30.9331 19.9488 30.2305L19.4383 29.753C18.7329 29.0928 17.8189 28.7641 16.9167 28.7654C16.8024 28.7654 16.6894 28.7875 16.5764 28.7986C16.5558 27.8834 16.1842 26.9662 15.4556 26.2838L15.4137 26.2434C14.7083 25.5826 13.7929 25.2538 12.8908 25.2544C11.9302 25.2538 10.9603 25.6256 10.2437 26.3634L9.34619 27.2871L3.65632 22.5028C3.43162 22.313 3.32658 22.0618 3.32393 21.7944C3.32525 21.5713 3.39905 21.3612 3.56391 21.1766L9.0743 15.0935C9.21191 14.9395 9.45057 14.7705 9.74972 14.6518C10.0455 14.5318 10.3966 14.4646 10.7077 14.4659C10.9816 14.4646 11.2215 14.5155 11.3877 14.5866L14.4132 15.8587C15.3844 16.2598 16.4441 16.4092 17.5111 16.4145C18.578 16.4092 19.6377 16.2605 20.6103 15.8587L23.6344 14.5872C23.986 14.4333 24.6163 14.3132 25.2405 14.3178C25.87 14.3113 26.4923 14.4404 26.836 14.5872L24.9108 16.0107C23.78 16.8489 23.185 18.1347 23.1863 19.4198C23.1863 20.2959 23.4642 21.1942 24.0379 21.9522L24.0366 21.9509L24.4441 22.4904C24.8975 23.0886 25.4838 23.5394 26.1227 23.8382C26.7628 24.137 27.4575 24.2903 28.1635 24.2909C28.9553 24.2909 29.7683 24.0939 30.4996 23.662L32.3417 22.5694C32.5857 22.4193 33.0444 22.2921 33.5283 22.296C33.8129 22.2954 34.1007 22.3352 34.35 22.4056C34.6006 22.4748 34.8074 22.5759 34.945 22.6737L40.0465 26.2793C41.1487 27.0562 42.9975 28.5436 43.9927 29.4516L45.7185 31.0251L45.7264 31.0173L49.1594 34.1485C49.5097 34.4675 49.6866 34.9007 49.6879 35.3449C49.6879 35.7494 49.5423 36.1428 49.2478 36.4559Z" fill="#0C8543"/>
</svg>
