<svg width="150" height="50" viewBox="0 0 150 50" fill="none" xmlns="http://www.w3.org/2000/svg">
<path d="M46.25 0H145C146.326 0 147.598 0.526784 148.536 1.46447C149.473 2.40215 150 3.67392 150 5V45C150 46.3261 149.473 47.5979 148.536 48.5355C147.598 49.4732 146.326 50 145 50H46.25V0Z" fill="#0C8543"/>
<path d="M62.9413 25C64.5804 24.9082 66.1945 25.4341 67.465 26.4738C68.009 26.9547 68.4398 27.5501 68.7264 28.2173C69.013 28.8845 69.1483 29.6068 69.1225 30.3325C69.1511 31.0574 69.0176 31.7794 68.7318 32.4461C68.4459 33.1128 68.0148 33.7073 67.47 34.1863C66.1933 35.2166 64.5792 35.7356 62.9413 35.6425H60.1263V39.3463L61.915 39.69V41.6963H55V39.69L56.7775 39.3463V27.3625L55 27.0238V25.005H62.9413V25ZM60.1263 33.0613H62.9413C63.3292 33.0907 63.7189 33.0381 64.0851 32.9067C64.4512 32.7753 64.7856 32.5681 65.0663 32.2988C65.5502 31.7698 65.8062 31.0714 65.7788 30.355C65.8059 29.6251 65.5508 28.9128 65.0663 28.3663C64.7893 28.0902 64.4562 27.8771 64.0895 27.7415C63.7228 27.6058 63.3311 27.5507 62.9413 27.58H60.1263V33.0613ZM78.0488 41.6963C77.9565 41.4889 77.8759 41.2765 77.8075 41.06C77.7394 40.8443 77.6859 40.6242 77.6475 40.4013C77.2433 40.8652 76.7503 41.2435 76.1975 41.5138C75.5877 41.8054 74.9183 41.9505 74.2425 41.9375C73.1855 41.9931 72.148 41.6375 71.3475 40.945C70.9858 40.598 70.7029 40.1774 70.5179 39.7116C70.3328 39.2457 70.25 38.7456 70.275 38.245C70.2545 37.7131 70.3726 37.185 70.6179 36.7125C70.8631 36.24 71.227 35.8394 71.6738 35.55C72.919 34.8367 74.3467 34.5059 75.7788 34.5988H77.4875V33.3838C77.5029 33.1293 77.465 32.8744 77.3761 32.6354C77.2871 32.3965 77.1493 32.1788 76.9713 31.9963C76.5467 31.6394 75.9994 31.4626 75.4463 31.5038C75.1017 31.4986 74.7582 31.5428 74.4263 31.635C74.1712 31.7037 73.9277 31.8099 73.7038 31.95L73.485 33.2738H70.9625L70.9738 30.5238C71.6286 30.0893 72.3354 29.7386 73.0775 29.48C73.9087 29.1906 74.7837 29.0472 75.6637 29.0563C77.0055 28.9925 78.3287 29.3895 79.4137 30.1813C79.8922 30.5642 80.2724 31.0557 80.5226 31.6151C80.7729 32.1746 80.886 32.7856 80.8525 33.3975V38.5225C80.8525 38.7134 80.8525 38.8929 80.8525 39.0613C80.8557 39.2224 80.8691 39.3831 80.8925 39.5425L81.9125 39.68V41.6963H78.0488ZM75.1475 39.46C75.6257 39.4662 76.098 39.3541 76.5225 39.1338C76.9051 38.942 77.2357 38.6607 77.4862 38.3138V36.4213H75.7788C75.196 36.3796 74.6188 36.558 74.1613 36.9213C73.9877 37.0688 73.8485 37.2526 73.7535 37.4597C73.6584 37.6668 73.6099 37.8922 73.6113 38.12C73.6015 38.3044 73.633 38.4886 73.7035 38.6592C73.774 38.8298 73.8817 38.9826 74.0188 39.1063C74.3388 39.3588 74.7406 39.4847 75.1475 39.46ZM83.3013 39.6888L84.9063 39.345V31.6488L83.1287 31.3075V29.2888H88.025L88.1738 31.1C88.4214 30.5161 88.8075 30.0012 89.2988 29.6C89.7523 29.2425 90.3151 29.0523 90.8925 29.0613C91.0786 29.0619 91.2645 29.0753 91.4488 29.1013C91.6134 29.1219 91.7763 29.1544 91.9363 29.1988L91.5813 32.2488L90.2063 32.2138C89.7828 32.1977 89.363 32.2966 88.9913 32.5C88.6702 32.6911 88.4144 32.9747 88.2575 33.3138V39.345L89.8625 39.6888V41.6963H83.3013V39.6888ZM98.1513 26.2488V29.2875H100.33V31.6388H98.1513V37.9575C98.1159 38.3272 98.2227 38.6964 98.45 38.99C98.5548 39.0948 98.6803 39.1765 98.8185 39.2299C98.9567 39.2833 99.1045 39.3072 99.2525 39.3C99.4533 39.3022 99.654 39.2934 99.8538 39.2738C100.025 39.2546 100.218 39.2221 100.433 39.1763L100.719 41.5963C100.354 41.7084 99.9827 41.7944 99.6063 41.8538C99.2116 41.9132 98.8129 41.9421 98.4138 41.94C97.9279 41.9717 97.4408 41.9037 96.9823 41.7401C96.5237 41.5765 96.1035 41.3208 95.7475 40.9888C95.0536 40.1434 94.7192 39.0594 94.8163 37.97V31.64H92.9913V29.2888H94.8163V26.25L98.1513 26.2488ZM101.786 39.69L103.391 39.3463V31.6488L101.614 31.305V29.2863H106.51L106.659 31.0638C107.043 30.4572 107.566 29.9504 108.184 29.585C108.801 29.2299 109.502 29.0476 110.214 29.0575C110.76 29.0273 111.306 29.1174 111.813 29.3215C112.321 29.5256 112.777 29.8388 113.15 30.2388C113.94 31.304 114.315 32.6207 114.205 33.9425V39.3438L115.81 39.6875V41.6963H109.413V39.69L110.846 39.3463V33.9563C110.91 33.3238 110.731 32.6908 110.346 32.185C110.141 31.9987 109.9 31.8563 109.638 31.7667C109.375 31.677 109.098 31.642 108.821 31.6638C108.408 31.6571 107.999 31.7497 107.629 31.9338C107.278 32.1132 106.975 32.3748 106.746 32.6963V39.3475L108.1 39.6913V41.6963H101.786V39.69ZM122.703 41.94C121.906 41.9759 121.112 41.8409 120.372 41.5442C119.632 41.2476 118.965 40.7961 118.414 40.22C117.326 39.0287 116.749 37.4574 116.809 35.845V35.3863C116.744 33.7343 117.285 32.1155 118.329 30.8338C118.827 30.2457 119.454 29.7797 120.16 29.4715C120.867 29.1634 121.635 29.0213 122.405 29.0563C123.126 29.0141 123.847 29.1279 124.52 29.3897C125.193 29.6516 125.801 30.0555 126.304 30.5738C127.274 31.7099 127.771 33.1755 127.691 34.6675V36.4913H120.284L120.261 36.56C120.293 37.3074 120.583 38.0208 121.081 38.5788C121.335 38.8451 121.642 39.0536 121.984 39.1902C122.325 39.3267 122.692 39.3881 123.059 39.37C123.682 39.3859 124.304 39.3114 124.905 39.1488C125.463 38.9698 126.001 38.7335 126.51 38.4438L127.416 40.5075C126.816 40.9571 126.143 41.3007 125.426 41.5238C124.547 41.8094 123.627 41.9492 122.703 41.9375V41.94ZM122.404 31.6425C122.12 31.633 121.838 31.6928 121.582 31.8168C121.326 31.9407 121.105 32.125 120.936 32.3538C120.548 32.9064 120.318 33.5548 120.271 34.2288L120.306 34.2863H124.411V33.9875C124.442 33.3798 124.266 32.7795 123.911 32.285C123.729 32.0658 123.498 31.8931 123.236 31.7809C122.974 31.6688 122.689 31.6205 122.405 31.64L122.404 31.6425ZM129.529 39.6925L131.134 39.3488V31.6488L129.354 31.3075V29.2888H134.25L134.399 31.1C134.646 30.5161 135.033 30.0012 135.524 29.6C135.977 29.2425 136.54 29.0523 137.118 29.0613C137.304 29.0619 137.489 29.0753 137.674 29.1013C137.838 29.1219 138.001 29.1544 138.161 29.1988L137.806 32.2488L136.431 32.2138C136.008 32.1977 135.588 32.2966 135.216 32.5C134.895 32.6911 134.639 32.9747 134.483 33.3138V39.345L136.088 39.6888V41.6963H129.526L129.529 39.6925Z" fill="white"/>
<path d="M46.875 49.375H5.00001C2.58762 49.375 0.625008 47.4124 0.625008 45V5C0.625008 2.58761 2.58762 0.625 5.00001 0.625H46.875V49.375Z" fill="white"/>
<path d="M5 1.25C2.93224 1.25 1.25 2.93224 1.25 5V45C1.25 47.0678 2.93224 48.75 5 48.75H46.25V1.25H5ZM5 0H47.5V50H5C2.23857 50 0 47.7614 0 45V5C0 2.23857 2.23857 0 5 0Z" fill="#0C8543"/>
</svg>
