<svg width="171" height="160" viewBox="0 0 171 160" fill="none" xmlns="http://www.w3.org/2000/svg">
<path d="M38.5591 101.735H5.30334L31.4327 114.696L38.5582 101.735H38.5591ZM132.34 101.733H165.647L139.467 114.695L132.34 101.733Z" fill="#7A3B00"/>
<path d="M85.7496 159.105C84.6645 159.105 83.63 158.853 82.8315 158.396L76.8834 154.987C76.1979 154.592 75.0278 154.329 73.9807 154.329C73.61 154.329 73.2645 154.363 72.9932 154.429L66.3244 156.025C65.9431 156.114 65.5529 156.158 65.1615 156.157C63.5031 156.157 61.7633 155.459 60.7288 154.383L55.9815 149.436C55.2183 148.638 53.5129 147.859 52.4052 147.805L45.5572 147.46C43.6746 147.364 41.5198 145.981 40.6517 144.311L37.4895 138.229C36.9777 137.245 35.5634 136.017 34.5172 135.653L28.0463 133.39C26.2677 132.771 24.5894 130.834 24.2286 128.986L22.912 122.257C22.7022 121.172 21.6867 119.596 20.7879 118.949L15.2159 114.959C13.685 113.863 12.6189 111.534 12.7934 109.66L13.4254 102.834C13.5294 101.73 12.9986 99.9322 12.3168 99.0608L8.09396 93.6606C6.93018 92.1772 6.56577 89.6434 7.26385 87.8934L9.79396 81.5241C10.2009 80.4936 10.2009 78.6188 9.79396 77.5919L7.26385 71.2199C6.56667 69.4726 6.93471 66.9352 8.09306 65.4527L12.3168 60.0515C12.9986 59.1801 13.5258 57.3831 13.4254 56.2784L12.7934 49.4536C12.6189 47.5779 13.685 45.2502 15.2159 44.1501L20.7915 40.1555C21.6912 39.5092 22.7058 37.9318 22.9156 36.847L24.2331 30.1189C24.5975 28.2667 26.2713 26.334 28.0491 25.7139L34.5253 23.4522C35.5716 23.0879 36.9858 21.8603 37.4976 20.8759L40.6598 14.7941C41.5279 13.1209 43.6818 11.7379 45.5654 11.6447L52.4124 11.3003C53.5165 11.2461 55.2219 10.4669 55.9896 9.66509L60.737 4.71865C61.7705 3.64113 63.5112 2.9478 65.1696 2.9478C65.5765 2.9478 65.9681 2.99028 66.3316 3.07977L73.0005 4.67526C73.325 4.74655 73.6566 4.78052 73.9888 4.7765C75.0351 4.7765 76.2061 4.50893 76.8915 4.11752L82.8397 0.709605C83.6381 0.251299 84.6726 0 85.7577 0C86.8392 0 87.8737 0.252203 88.6721 0.708701L94.6203 4.12203C95.3057 4.51706 96.4758 4.78011 97.5221 4.78011C97.8543 4.78491 98.186 4.75124 98.5104 4.67978L105.179 3.08339C105.561 2.99508 105.951 2.9508 106.342 2.95141C108.001 2.95141 109.74 3.64565 110.771 4.72226L115.519 9.6687C116.285 10.4669 117.991 11.2461 119.095 11.304L125.943 11.6484C127.825 11.7451 129.977 13.1281 130.848 14.7977L134.006 20.8796C134.518 21.8603 135.932 23.0879 136.978 23.4558L143.45 25.7184C145.229 26.3422 146.907 28.2748 147.271 30.1225L148.588 36.8515C148.801 37.9363 149.813 39.5128 150.716 40.16L156.289 44.1537C157.823 45.2502 158.888 47.5824 158.71 49.4572L158.083 56.2784C157.978 57.3785 158.505 59.1801 159.187 60.0515L163.411 65.4518C164.574 66.9352 164.938 69.4726 164.24 71.2199L161.71 77.5928C161.299 78.6188 161.299 80.4945 161.71 81.525L164.24 87.897C164.938 89.6479 164.574 92.1808 163.411 93.6651L159.19 99.0644C158.509 99.9367 157.981 101.734 158.083 102.838L158.714 109.663C158.888 111.538 157.823 113.867 156.292 114.967L150.719 118.957C149.821 119.604 148.805 121.181 148.596 122.265L147.279 128.993C146.918 130.842 145.241 132.775 143.462 133.398L136.986 135.661C135.944 136.024 134.526 137.253 134.014 138.236L130.856 144.318C129.988 145.988 127.834 147.371 125.95 147.468L119.103 147.813C117.999 147.867 116.294 148.65 115.526 149.444L110.779 154.39C109.749 155.468 108.009 156.165 106.35 156.165C105.943 156.165 105.552 156.118 105.187 156.033L98.5186 154.437C98.1941 154.366 97.8624 154.332 97.5302 154.336C96.4804 154.336 95.3139 154.6 94.6239 154.995L88.6649 158.392C87.8692 158.853 86.8311 159.105 85.7496 159.105V159.105Z" fill="url(#paint0_linear_2509_22)"/>
<path d="M160.516 81.9864C159.982 80.6458 159.982 78.4492 160.516 77.1087L163.043 70.7358C163.577 69.3961 163.283 67.3667 162.395 66.2314L158.171 60.8312C157.284 59.6922 156.664 57.5887 156.796 56.1514L157.427 49.3265C157.563 47.8892 156.711 46.0253 155.536 45.1846L149.964 41.1909C148.79 40.3502 147.604 38.5062 147.325 37.0888L146.007 30.3597C145.732 28.9459 144.388 27.3966 143.028 26.9202L136.552 24.6576C135.189 24.1812 133.53 22.7439 132.863 21.4621L129.705 15.3803C129.043 14.0976 127.318 12.9902 125.877 12.9161L119.029 12.5717C117.587 12.4976 115.588 11.5873 114.588 10.545L109.842 5.59859C108.842 4.55633 106.877 3.97961 105.474 4.31588L98.8052 5.91227C97.4027 6.24944 95.2289 5.93577 93.9765 5.21893L88.0283 1.81012C86.7768 1.09328 84.7277 1.09328 83.4754 1.81012L77.5272 5.21893C76.2757 5.93939 74.1009 6.24944 72.6984 5.91227L66.0296 4.31588C64.6271 3.97961 62.6585 4.55633 61.6584 5.59859L56.911 10.545C55.9118 11.5873 53.9162 12.4976 52.4748 12.5717L45.6268 12.9161C44.1855 12.9902 42.462 14.0976 41.7991 15.3803L38.637 21.4621C37.9741 22.7403 36.3112 24.1776 34.9512 24.6576L28.4804 26.9202C27.1158 27.393 25.7748 28.9423 25.4963 30.3597L24.1788 37.0888C23.903 38.5062 22.7139 40.3502 21.5393 41.1909L15.9673 45.1846C14.7926 46.0253 13.9408 47.8892 14.0765 49.3256L14.7076 56.1514C14.8397 57.5887 14.2239 59.6922 13.3323 60.8312L9.10849 66.2314C8.22142 67.3704 7.93025 69.3961 8.46105 70.7367L10.9875 77.1096C11.5229 78.4492 11.5229 80.6458 10.9875 81.9864L8.46105 88.3593C7.93025 89.699 8.22142 91.7283 9.10849 92.8637L13.3323 98.2639C14.2193 99.3993 14.8397 101.506 14.7076 102.944L14.0765 109.769C13.9408 111.206 14.7935 113.07 15.9673 113.91L21.5393 117.904C22.7139 118.745 23.8994 120.589 24.1788 122.006L25.4963 128.732C25.7712 130.149 27.1158 131.695 28.4804 132.171L34.9512 134.434C36.3157 134.91 37.9741 136.348 38.6406 137.629L41.8027 143.711C42.4692 144.994 44.1936 146.101 45.6314 146.171L52.4784 146.516C53.9198 146.589 55.92 147.5 56.9156 148.542L61.6629 153.489C62.6621 154.531 64.6271 155.108 66.0332 154.771L72.703 153.175C74.1046 152.838 76.2793 153.152 77.5317 153.868L83.479 157.278C84.7305 157.998 86.7804 157.998 88.0319 157.278L93.981 153.868C95.2325 153.148 97.4063 152.838 98.8088 153.175L105.478 154.771C106.881 155.108 108.85 154.531 109.845 153.489L114.593 148.542C115.592 147.5 117.587 146.589 119.033 146.516L125.88 146.171C127.322 146.098 129.046 144.989 129.709 143.711L132.868 137.629C133.534 136.351 135.192 134.91 136.556 134.434L143.031 132.171C144.396 131.695 145.736 130.146 146.012 128.732L147.329 122.006C147.608 120.589 148.794 118.745 149.968 117.904L155.54 113.91C156.715 113.07 157.567 111.206 157.432 109.769L156.8 102.944C156.664 101.506 157.284 99.4029 158.175 98.2639L162.4 92.8637C163.29 91.7247 163.582 89.699 163.046 88.3584L160.516 81.9855V81.9864Z" fill="url(#paint1_linear_2509_22)"/>
<path d="M85.7496 19.238C52.4278 19.238 25.4186 46.2391 25.4186 79.5499C25.4186 112.861 52.4287 139.861 85.7505 139.861C119.068 139.861 146.081 112.861 146.081 79.549C146.081 46.2382 119.068 19.238 85.7496 19.238V19.238ZM85.7496 116.532C65.3207 116.532 48.7547 99.9756 48.7547 79.5499C48.7547 59.1268 65.317 42.57 85.7496 42.57C106.179 42.57 122.742 59.1268 122.742 79.5499C122.745 99.972 106.183 116.532 85.7496 116.532V116.532Z" fill="black"/>
<path d="M24.3145 100.409L23.9311 99.1774L22.6407 99.162L23.6897 98.4144L23.3072 97.1824L24.3417 97.9534L25.3915 97.2059L24.981 98.4298L26.0154 99.2009L24.7251 99.1846L24.3145 100.409ZM22.9003 95.6601L22.6091 94.4009L21.3223 94.2888L22.431 93.6262L22.1443 92.3706L23.1173 93.2158L24.225 92.5532L23.7177 93.7383L24.6907 94.5871L23.4039 94.4741L22.9003 95.6601V95.6601ZM21.8495 90.8095L21.6596 89.5349L20.3846 89.3225L21.5394 88.7448L21.3495 87.4703L22.2528 88.3887L23.4076 87.8111L22.8108 88.9582L23.7177 89.8802L22.4427 89.6669L21.8495 90.8095V90.8095ZM21.1759 85.901L21.0827 84.6156L19.8312 84.3055L21.0285 83.8219L20.9353 82.5356L21.7645 83.5191L22.9618 83.0355L22.28 84.1311L23.1092 85.1191L21.8577 84.809L21.1759 85.9019V85.901ZM20.8847 80.9591L20.8928 79.6682L19.6685 79.2614L20.8964 78.8709L20.9046 77.581L21.656 78.6269L22.884 78.2355L22.1208 79.2732L22.8731 80.3236L21.6479 79.9204L20.8847 80.9591V80.9591ZM20.9706 76.0045L21.0746 74.7218L19.8855 74.2219L21.1406 73.9236L21.2455 72.6382L21.9155 73.7383L23.1715 73.44L22.3306 74.4199L23.0006 75.5236L21.807 75.0237L20.9706 76.0045V76.0045ZM21.4318 71.0725L21.6325 69.7979L20.4814 69.2131L21.7564 69.0115L21.958 67.7369L22.5431 68.8877L23.8181 68.6861L22.9039 69.5973L23.4889 70.7471L22.3378 70.1622L21.4309 71.0725H21.4318ZM22.2682 66.2002L22.5666 64.9437L21.4661 64.2748L22.7529 64.1699L23.0513 62.9143L23.5513 64.1039L24.8372 63.9991L23.857 64.8397L24.357 66.033L23.2529 65.3631L22.2682 66.1993V66.2002ZM23.4736 61.3885L23.8651 60.16L22.8189 59.4088L24.1093 59.4007L24.4999 58.1731L24.9068 59.397L26.1981 59.3898L25.1555 60.1527L25.5579 61.3767L24.5117 60.621L23.4736 61.3885ZM25.0388 56.6933L25.5235 55.5001L24.5352 54.6712L25.8219 54.7598L26.3057 53.5665L26.6204 54.8185L27.9062 54.9116L26.8103 55.5932L27.1195 56.8443L26.1321 56.0153L25.0388 56.6933V56.6933ZM26.9568 52.122L27.531 50.9677L26.6086 50.0655L27.8836 50.2553L28.4569 49.101L28.6703 50.3711L29.949 50.5609L28.8051 51.1575L29.0185 52.4321L28.0961 51.529L26.9568 52.122V52.122ZM29.2165 47.7179L29.8793 46.6097L29.0302 45.637L30.2899 45.9236L30.9527 44.8162L31.0684 46.1026L32.3281 46.3891L31.1426 46.8963L31.2583 48.1826L30.4101 47.2099L29.2165 47.7179V47.7179ZM31.8126 43.4911L32.5568 42.4379L31.7819 41.4029L33.0135 41.7826L33.7577 40.7295L33.7776 42.0194L35.0092 42.4027L33.7884 42.8176L33.8047 44.1103L33.0334 43.077L31.8126 43.4911ZM34.7189 39.482L35.5409 38.4904L34.8509 37.402L36.0482 37.8784L36.8701 36.8868L36.7888 38.1722L37.9896 38.6486L36.7381 38.9668L36.6567 40.2567L35.9668 39.1683L34.7189 39.482V39.482ZM37.9272 35.7053L38.8269 34.7787L38.222 33.6398L39.3804 34.2056L40.2756 33.28L40.0974 34.5546L41.2603 35.124L39.9853 35.3482L39.8072 36.6273L39.2022 35.4883L37.9272 35.7053V35.7053ZM41.4231 32.1799L42.3879 31.3238L41.8725 30.1424L42.9847 30.7968L43.9496 29.9408L43.6747 31.2L44.7869 31.8544L43.5038 31.9783L43.2243 33.2375L42.7089 32.056L41.4231 32.1799V32.1799ZM45.1622 28.9491L46.1894 28.1708L45.7671 26.9541L46.8251 27.6899L47.8514 26.9116L47.4798 28.1473L48.5378 28.8831L47.2474 28.9103L46.8748 30.146L46.4489 28.9256L45.1622 28.9491V28.9491ZM49.1499 26.0013L50.2351 25.3035L49.9059 24.056L50.9051 24.8741L51.9902 24.1763L51.5254 25.3776L52.5246 26.1948L51.2388 26.1207L50.7695 27.3256L50.4403 26.0782L49.1499 26.0013V26.0013ZM53.3385 23.3708L54.4742 22.7589L54.2382 21.4879L55.1759 22.3756L56.3071 21.7591L55.7528 22.9252L56.6869 23.812L55.4083 23.6456L54.8504 24.8117L54.618 23.5408L53.3385 23.3708V23.3708ZM57.7295 21.0585L58.9069 20.5315L58.7676 19.2488L59.6321 20.2061L60.8103 19.6791L60.171 20.7982L61.0391 21.7555L59.775 21.4924L59.1329 22.6115L58.9928 21.3297L57.7295 21.0585V21.0585ZM62.2743 19.0861L63.4878 18.6486L63.449 17.3586L64.2393 18.3774L65.4528 17.9399L64.7276 19.0047L65.5179 20.0235L64.2791 19.6637L63.5493 20.7331L63.5068 19.4431L62.2752 19.0861H62.2743ZM66.9484 17.4671L68.1918 17.1263L68.2542 15.8364L68.9631 16.913L70.2074 16.5722L69.4008 17.5837L70.1106 18.6594L68.9016 18.2029L68.095 19.2099L68.1538 17.92L66.9484 17.4671V17.4671ZM71.75 16.2115L73.016 15.9674L73.1751 14.6856L73.7991 15.8129L75.0669 15.5688L74.187 16.5143L74.8109 17.6416L73.6408 17.0956L72.7565 18.0357L72.9156 16.7584L71.7491 16.2115H71.75ZM76.6321 15.3283L77.9144 15.181L78.1703 13.9191L78.7056 15.0924L79.9878 14.9451L79.0383 15.8165L79.5773 16.9907L78.4533 16.3552L77.5002 17.2266L77.7561 15.9638L76.6321 15.3283V15.3283ZM81.5576 14.8248L82.8435 14.7787L83.1961 13.5385L83.6419 14.7516L84.9323 14.7046L83.9168 15.5028L84.3626 16.7159L83.2893 15.9955L82.2738 16.7927L82.6264 15.5534L81.5576 14.8248V14.8248ZM86.5129 14.6974L87.8042 14.748L88.2491 13.5385L88.6018 14.7824L89.8885 14.833L88.8152 15.5498L89.1678 16.7927L88.1524 15.9909L87.079 16.7078L87.5248 15.4992L86.5138 14.6974H86.5129ZM91.4547 14.9487L92.7369 15.096L93.2759 13.9263L93.5318 15.1891L94.814 15.3365L93.69 15.972L93.9459 17.2348L92.9928 16.3634L91.8688 16.9979L92.4033 15.8246L91.4547 14.9487V14.9487ZM96.3675 15.5769L97.6353 15.821L98.2592 14.6892L98.4175 15.972L99.6807 16.216L98.5151 16.7656L98.6734 18.0447L97.7899 17.1028L96.6198 17.6488L97.2438 16.5179L96.3675 15.5769V15.5769ZM101.223 16.5758L102.468 16.9166L103.177 15.8364L103.238 17.1227L104.482 17.4635L103.273 17.92L103.336 19.2099L102.529 18.2029L101.32 18.6603L102.029 17.5828L101.223 16.5758V16.5758ZM105.993 17.9435L107.207 18.3774L107.997 17.3586L107.958 18.6486L109.171 19.0825L107.935 19.4468L107.897 20.7367L107.168 19.6709L105.928 20.0352L106.719 19.0129L105.993 17.9435V17.9435ZM110.636 19.6637L111.814 20.1907L112.679 19.2298L112.543 20.5116L113.72 21.035L112.461 21.3026L112.326 22.5844L111.678 21.4689L110.415 21.7356L111.28 20.7756L110.636 19.6637ZM115.135 21.7356L116.27 22.3476L117.204 21.4617L116.972 22.7272L118.108 23.3401L116.828 23.51L116.596 24.781L116.038 23.6185L114.759 23.7894L115.693 22.8981L115.135 21.7356V21.7356ZM119.471 24.1455L120.556 24.8425L121.557 24.0289L121.226 25.2764L122.312 25.9742L121.025 26.0474L120.696 27.2949L120.227 26.0935L118.94 26.1677L119.941 25.3505L119.471 24.1455V24.1455ZM123.602 26.8764L124.629 27.6547L125.687 26.9189L125.265 28.1356L126.291 28.9139L125.001 28.8868L124.579 30.1071L124.207 28.8714L122.917 28.8443L123.974 28.1085L123.602 26.8764V26.8764ZM127.512 29.9173L128.477 30.7733L129.589 30.1189L129.074 31.3003L130.038 32.1564L128.756 32.0325L128.241 33.214L127.961 31.9512L126.679 31.8237L127.791 31.1729L127.512 29.9173V29.9173ZM131.186 33.2529L132.081 34.1785L133.24 33.6126L132.635 34.7516L133.53 35.6818L132.263 35.4567L131.654 36.5957L131.476 35.3175L130.201 35.0933L131.36 34.5274L131.186 33.2529ZM134.581 36.8551L135.402 37.8513L136.603 37.3749L135.91 38.4633L136.731 39.4549L135.483 39.1367L134.793 40.226L134.712 38.9396L133.46 38.6178L134.662 38.1451L134.581 36.8551V36.8551ZM137.696 40.7141L138.44 41.7672L139.672 41.3839L138.901 42.4181L139.645 43.4721L138.425 43.0572L137.65 44.0922L137.665 42.8013L136.441 42.3873L137.672 42.004L137.696 40.7141ZM140.49 44.7891L141.156 45.8929L142.412 45.5991L141.567 46.5753L142.233 47.6782L141.044 47.1792L140.2 48.1555L140.308 46.8691L139.118 46.3692L140.373 46.0755L140.49 44.7891V44.7891ZM142.993 49.0694L143.571 50.2237L144.846 50.0303L143.927 50.9369L144.505 52.0913L143.361 51.4983L142.443 52.4049L142.652 51.1304L141.505 50.5374L142.78 50.3439L142.993 49.0694V49.0694ZM145.159 53.524L145.648 54.7173L146.934 54.6205L145.95 55.454L146.438 56.6472L145.341 55.9692L144.357 56.8009L144.663 55.5462L143.567 54.8646L144.853 54.7679L145.159 53.524V53.524ZM146.977 58.1306L147.372 59.3582L148.663 59.3618L147.616 60.1175L148.011 61.346L146.969 60.5866L145.923 61.3414L146.326 60.1139L145.283 59.3509L146.574 59.3546L146.977 58.1306ZM148.437 62.8601L148.736 64.1157L150.023 64.2196L148.922 64.894L149.22 66.1487L148.24 65.3125L147.14 65.9869L147.635 64.7937L146.655 63.953L147.942 64.0533L148.437 62.8601ZM149.531 67.6944L149.732 68.969L151.007 69.1706L149.856 69.7555L150.058 71.03L149.147 70.1198L147.996 70.7046L148.581 69.5539L147.667 68.6436L148.941 68.8452L149.531 67.6944ZM150.248 72.5993L150.352 73.8811L151.608 74.1794L150.418 74.6757L150.523 75.9611L149.682 74.9848L148.492 75.4811L149.163 74.381L148.322 73.4011L149.577 73.6994L150.248 72.5993V72.5993ZM150.584 77.5385L150.589 78.8285L151.817 79.2235L150.592 79.6257L150.596 80.9157L149.833 79.8779L148.608 80.2811L149.364 79.2307L148.6 78.1885L149.829 78.5844L150.584 77.5385ZM150.546 82.4967L150.453 83.783L151.65 84.2712L150.399 84.5767L150.306 85.863L149.624 84.7665L148.371 85.0766L149.205 84.0886L148.523 82.9921L149.716 83.4802L150.546 82.4967V82.4967ZM150.127 87.4323L149.938 88.7069L151.092 89.2836L149.817 89.4969L149.627 90.7706L149.031 89.628L147.759 89.8413L148.666 88.9193L148.069 87.7731L149.224 88.3498L150.127 87.4323V87.4323ZM149.333 92.3164L149.046 93.5756L150.155 94.2382L148.868 94.3503L148.581 95.6095L148.073 94.4244L146.787 94.5401L147.759 93.6922L147.252 92.5062L148.36 93.1688L149.333 92.3164V92.3164ZM148.171 97.1353L147.791 98.3674L148.844 99.1114L147.554 99.1268L147.17 100.359L146.755 99.1385L145.465 99.1539L146.5 98.3828L146.085 97.1589L147.14 97.9028L148.171 97.1353V97.1353ZM146.647 101.842L146.175 103.044L147.17 103.864L145.884 103.783L145.411 104.984L145.09 103.737L143.803 103.656L144.892 102.966L144.57 101.715L145.566 102.536L146.647 101.842V101.842ZM144.771 106.429L144.206 107.587L145.136 108.482L143.857 108.304L143.296 109.463L143.067 108.192L141.788 108.014L142.927 107.409L142.703 106.139L143.632 107.034L144.771 106.429V106.429ZM142.548 110.865L141.897 111.98L142.757 112.945L141.494 112.67L140.842 113.782L140.715 112.499L139.451 112.224L140.634 111.705L140.505 110.419L141.362 111.383L142.548 110.865V110.865ZM139.99 115.11L139.254 116.172L140.037 117.198L138.801 116.826L138.068 117.887L138.037 116.597L136.8 116.226L138.021 115.799L137.994 114.509L138.777 115.536L139.99 115.11V115.11ZM137.122 119.147L136.309 120.146L137.01 121.227L135.805 120.762L134.991 121.762L135.061 120.475L133.855 120.011L135.103 119.677L135.173 118.387L135.875 119.468L137.122 119.147V119.147ZM133.945 122.955L133.058 123.892L133.674 125.023L132.507 124.466L131.62 125.403L131.786 124.125L130.623 123.571L131.895 123.335L132.066 122.056L132.682 123.191L133.945 122.955V122.955ZM130.492 126.499L129.535 127.363L130.062 128.541L128.946 127.898L127.988 128.761L128.256 127.503L127.14 126.859L128.423 126.724L128.69 125.461L129.217 126.639L130.492 126.499V126.499ZM126.768 129.776L125.749 130.563L126.183 131.775L125.117 131.047L124.098 131.834L124.458 130.598L123.393 129.869L124.683 129.83L125.048 128.591L125.482 129.807L126.768 129.776V129.776ZM122.812 132.756L121.735 133.464L122.076 134.707L121.068 133.902L119.99 134.611L120.444 133.402L119.436 132.597L120.726 132.658L121.18 131.449L121.521 132.693L122.812 132.756V132.756ZM118.638 135.424L117.511 136.051L117.755 137.319L116.809 136.439L115.682 137.067L116.224 135.897L115.282 135.017L116.561 135.176L117.108 134.007L117.352 135.273L118.638 135.424V135.424ZM114.286 137.772L113.116 138.31L113.267 139.592L112.392 138.643L111.217 139.182L111.849 138.058L110.973 137.109L112.24 137.361L112.872 136.238L113.023 137.52L114.286 137.772ZM109.752 139.787L108.543 140.231L108.594 141.521L107.796 140.511L106.587 140.96L107.3 139.887L106.502 138.872L107.745 139.221L108.462 138.148L108.513 139.438L109.752 139.787V139.787ZM105.087 141.448L103.843 141.801L103.797 143.091L103.075 142.018L101.836 142.37L102.63 141.355L101.91 140.282L103.122 140.728L103.916 139.713L103.87 141.002L105.087 141.448V141.448ZM100.301 142.746L99.0378 143.001L98.8904 144.284L98.2547 143.16L96.9878 143.416L97.8596 142.463L97.2248 141.34L98.3985 141.874L99.2702 140.925L99.1228 142.207L100.301 142.746V142.746ZM95.4379 143.672L94.1593 143.831L93.9152 145.097L93.369 143.928L92.0859 144.086L93.0272 143.207L92.481 142.037L93.6132 142.66L94.5545 141.782L94.3103 143.048L95.4379 143.672ZM90.5125 144.221L89.2221 144.28L88.8812 145.523L88.4282 144.315L87.1378 144.372L88.1451 143.567L87.6876 142.358L88.7691 143.067L89.7764 142.262L89.4355 143.506L90.5125 144.221V144.221ZM85.5571 144.392L84.2659 144.353L83.8318 145.566L83.4674 144.326L82.177 144.287L83.2431 143.56L82.8787 142.32L83.9014 143.11L84.9676 142.382L84.5335 143.594L85.5562 144.392H85.5571ZM80.6118 144.187L79.3295 144.051L78.8023 145.229L78.5347 143.967L77.2524 143.831L78.3683 143.184L78.1006 141.921L79.0582 142.784L80.1777 142.141L79.6505 143.319L80.6118 144.187V144.187ZM75.679 143.598L74.4113 143.365L73.7955 144.501L73.6246 143.223L72.3586 142.99L73.5206 142.433L73.3497 141.153L74.2367 142.091L75.4032 141.533L74.7911 142.668L75.679 143.598V143.598ZM70.8268 142.645L69.5789 142.316L68.8826 143.401L68.8121 142.114L67.5642 141.785L68.766 141.316L68.6955 140.026L69.5138 141.026L70.7183 140.557L70.0211 141.642L70.8268 142.645V142.645ZM66.0451 141.324L64.8289 140.902L64.0494 141.928L64.0765 140.638L62.8603 140.216L64.0919 139.841L64.119 138.551L64.8596 139.608L66.0957 139.236L65.3172 140.267L66.0451 141.324V141.324ZM61.3882 139.643L60.2054 139.128L59.3491 140.092L59.4729 138.81L58.2911 138.295L59.5507 138.016L59.6746 136.729L60.3293 137.846L61.5889 137.567L60.7326 138.531L61.3873 139.643H61.3882ZM56.8732 137.613L55.7302 137.009L54.8034 137.907L55.0249 136.637L53.8855 136.033L55.1605 135.851L55.3812 134.58L55.9509 135.738L57.2295 135.556L56.3035 136.455L56.8732 137.613ZM52.5174 135.242L51.4287 134.556L50.4367 135.382L50.7541 134.131L49.6618 133.441L50.9476 133.356L51.2659 132.108L51.7424 133.309L53.0328 133.224L52.0409 134.049L52.5174 135.242V135.242ZM48.3551 132.55L47.3206 131.779L46.2708 132.527L46.6813 131.303L45.6469 130.532L46.9372 130.544L47.3478 129.323L47.7312 130.555L49.0224 130.571L47.9681 131.318L48.3551 132.55V132.55ZM44.418 129.548L43.4459 128.7L42.3373 129.362L42.8409 128.173L41.8689 127.328L43.1511 127.44L43.6548 126.255L43.9459 127.514L45.2318 127.63L44.1241 128.293L44.418 129.548ZM40.7214 126.244L39.8189 125.325L38.6642 125.903L39.261 124.76L38.3576 123.842L39.629 124.055L40.2213 122.908L40.4157 124.186L41.6907 124.4L40.5351 124.977L40.7214 126.244ZM37.2924 122.668L36.4587 121.684L35.2651 122.169L35.9478 121.076L35.1141 120.088L36.3656 120.398L37.0483 119.301L37.1405 120.588L38.3929 120.898L37.1948 121.382L37.2924 122.668ZM34.1456 118.845L33.3897 117.799L32.1617 118.194L32.9249 117.152L32.1689 116.106L33.3942 116.509L34.1574 115.467L34.1528 116.757L35.3817 117.16L34.1528 117.555L34.1456 118.845ZM31.2972 114.789L30.6271 113.689L29.3711 113.987L30.2121 113.007L29.542 111.907L30.7311 112.402L31.5685 111.422L31.4636 112.709L32.6572 113.204L31.4021 113.502L31.2972 114.789V114.789ZM28.7626 110.527L28.1775 109.381L26.9025 109.586L27.814 108.672L27.2244 107.525L28.3755 108.107L29.2861 107.192L29.0845 108.466L30.2356 109.051L28.9606 109.256L28.7626 110.527V110.527ZM26.5616 106.095L26.0616 104.907L24.7757 105.012L25.7523 104.171L25.2522 102.981L26.3563 103.647L27.3329 102.803L27.0382 104.058L28.1432 104.729L26.8564 104.837L26.5616 106.095V106.095Z" fill="url(#paint2_linear_2509_22)"/>
<path d="M165.647 58.0755H5.30334V101.737H165.647V58.0764V58.0755Z" fill="url(#paint3_linear_2509_22)"/>
<path d="M169.913 80.0632C169.913 92.3308 165.647 100.106 165.647 100.106H5.30346C5.30346 100.106 1.08691 92.2965 1.08691 79.9349C1.08691 69.6388 5.30346 59.7061 5.30346 59.7061H165.647C165.647 59.7025 169.913 70.8935 169.913 80.0632Z" fill="url(#paint4_linear_2509_22)"/>
<path d="M90.0629 48.6554L87.7652 50.8909L88.315 54.052L85.4711 52.5569L82.6345 54.052L83.177 50.8909L80.8829 48.6554L84.0569 48.1989L85.4711 45.3207L86.8935 48.1989L90.0629 48.6554ZM98.0611 50.9289L96.9606 48.6943L95.8601 50.9298L93.3915 51.2859L95.1747 53.0251L94.7515 55.4812L96.9606 54.3196L99.1697 55.4812L98.7429 53.0251L100.53 51.2859L98.0611 50.9298V50.9289ZM75.0894 51.0617L73.9853 48.8227L72.8848 51.0617L70.4198 51.4143L72.1985 53.1526L71.7807 55.6122L73.9853 54.4498L76.1944 55.6122L75.7676 53.1526L77.5544 51.4134L75.0894 51.0608V51.0617ZM80.8829 110.443L83.1843 108.204L82.6345 105.047L85.4747 106.542L88.315 105.047L87.7725 108.204L90.0629 110.443L86.8935 110.9L85.4747 113.778L84.0569 110.9L80.8829 110.443V110.443ZM72.8848 108.169L73.9853 110.404L75.0894 108.169L77.5544 107.813L75.7757 106.074L76.1944 103.618L73.9853 104.78L71.7807 103.618L72.2066 106.074L70.4198 107.813L72.8848 108.169ZM95.8601 108.038L96.9606 110.277L98.0647 108.038L100.53 107.682L98.7474 105.942L99.1697 103.486L96.9606 104.648L94.7515 103.486L95.1783 105.942L93.3915 107.682L95.8601 108.038Z" fill="black"/>
<path d="M61.6738 113.422L50.1997 122.606L47.0764 119.465C48.3821 117.594 49.9401 115.541 51.7496 113.302C50.782 114.068 48.7348 115.634 45.6187 118.004L42.5117 114.882L51.7496 103.454L54.1838 105.898L50.8354 109.761L47.5963 113.492C49.4952 111.787 52.095 109.661 55.3964 107.115L57.9962 109.726C57.7294 110.063 56.6787 111.287 54.8539 113.398L51.188 117.597C53.7874 115.289 56.475 113.082 59.2449 110.981L61.6738 113.422V113.422ZM68.2306 116.636L63.0039 130.427L59.821 128.688L60.9151 126.293L59.8029 125.686L58.357 127.886L55.1369 126.127L63.7364 114.177L68.2306 116.636ZM62.0726 123.977C62.866 122.083 63.6889 120.202 64.5412 118.333C62.8828 120.615 61.7018 122.3 61.0001 123.388L62.0735 123.977H62.0726ZM70.9822 117.942L73.4002 118.615C75.0125 119.064 76.0858 119.437 76.6203 119.732C77.1547 120.025 77.5236 120.495 77.7325 121.141C77.9378 121.788 77.8763 122.714 77.539 123.911C77.2324 125.007 76.8997 125.705 76.5389 126.01C76.179 126.317 75.6165 126.402 74.8452 126.27C75.4737 126.638 75.8607 127.006 76.0081 127.375C76.1555 127.742 76.2251 128.056 76.2097 128.327C76.198 128.595 76.0316 129.295 75.7133 130.431L74.6752 134.142L71.5013 133.255L72.807 128.579C73.0168 127.827 73.0936 127.343 73.0322 127.134C72.9698 126.924 72.7066 126.751 72.2337 126.619L70.4586 132.964L67.0406 132.007L70.9822 117.942V117.942ZM73.7257 121.304L72.8495 124.434C73.2338 124.542 73.5205 124.561 73.7058 124.492C73.8921 124.422 74.0703 124.078 74.2448 123.458L74.4618 122.683C74.5857 122.237 74.5938 121.924 74.4853 121.742C74.3732 121.559 74.1209 121.412 73.7257 121.304V121.304ZM80.41 120.347L82.9211 120.432C84.5949 120.49 85.727 120.595 86.3121 120.754C86.9008 120.912 87.3701 121.281 87.7263 121.861C88.079 122.443 88.2382 123.357 88.1957 124.6C88.1568 125.736 87.9976 126.495 87.7227 126.878C87.4433 127.262 86.9161 127.475 86.1412 127.529C86.8393 127.738 87.3004 128.005 87.5328 128.327C87.7652 128.648 87.9045 128.939 87.9551 129.202C88.0058 129.466 88.0094 130.187 87.9705 131.364L87.8385 135.215L84.5452 135.102L84.7115 130.253C84.7387 129.47 84.6962 128.985 84.5877 128.796C84.4792 128.606 84.1808 128.502 83.6925 128.485L83.4673 135.067L79.9226 134.947L80.4109 120.347H80.41ZM83.8706 122.966L83.7585 126.212C84.1572 126.227 84.4403 126.177 84.603 126.065C84.7658 125.953 84.8589 125.577 84.8825 124.934L84.9096 124.132C84.925 123.666 84.8589 123.361 84.7079 123.214C84.5605 123.063 84.2811 122.981 83.8706 122.966ZM96.1314 119.24L100.972 133.17L97.4146 133.875L96.7165 131.337L95.4731 131.586L95.7751 134.205L92.1753 134.917L91.1019 120.236L96.1314 119.24V119.24ZM96.116 128.82C95.5079 126.859 94.933 124.888 94.3916 122.908C94.5815 125.721 94.7597 127.774 94.9188 129.06L96.116 128.82V128.82ZM106.3 115.204L112.333 128.506L109.501 129.789L105.075 124.501L107.819 130.548L105.118 131.772L99.0847 118.47L101.785 117.246L106.315 122.413L103.599 116.424L106.3 115.204V115.204ZM113.535 109.912L115.294 112.248L113.612 113.514L120.641 122.85L117.805 124.984L110.776 115.653L109.098 116.916L107.338 114.58L113.535 109.912V109.912ZM119.61 103.008L125.012 111.031L129.031 114.467L126.892 116.965L122.874 113.53L114.166 109.365L116.286 106.89C118.785 108.358 120.432 109.385 121.223 109.978C120.165 108.815 118.921 107.316 117.491 105.483L119.61 103.008V103.008ZM50.8779 35.8915L60.2595 47.2027L57.1444 50.4145C55.2454 49.148 53.1602 47.6294 50.886 45.8631C51.6682 46.8195 53.2687 48.8344 55.6912 51.9141L52.595 55.1096L40.9844 46.0954L43.4105 43.5969L47.3359 46.8737L51.1301 50.0384C49.3904 48.1673 47.2201 45.6073 44.6195 42.3494L47.212 39.6764C47.5529 39.9395 48.7972 40.9627 50.9439 42.748L55.2102 46.3313C52.8538 43.7741 50.5993 41.1249 48.4517 38.3901L50.8779 35.8915V35.8915ZM60.7786 30.0068L69.7262 41.7374L66.5342 43.5309L65.0801 41.3343L63.9643 41.9616L65.0648 44.3553L61.8329 46.1722L56.2681 32.5442L60.7786 30.0068ZM63.7283 39.1223C62.5382 37.4478 61.3767 35.7532 60.2442 34.0393C61.2985 36.6581 62.1006 38.5528 62.6504 39.7261L63.7283 39.1223V39.1223ZM66.7159 27.3383L69.1574 26.6414C70.7851 26.1758 71.9046 25.9282 72.5167 25.8974C73.1289 25.8667 73.695 26.0719 74.214 26.513C74.7331 26.955 75.1635 27.7758 75.5044 28.9727C75.8146 30.0656 75.8959 30.8366 75.7486 31.2859C75.6012 31.7352 75.1599 32.1031 74.4265 32.3941C75.159 32.3779 75.6862 32.4863 76.0081 32.7196C76.33 32.9519 76.5542 33.1878 76.6826 33.4247C76.8102 33.6597 77.0389 34.3422 77.3608 35.4766L78.4188 39.1801L75.2178 40.0949L73.8849 35.4269C73.6715 34.6757 73.4816 34.2256 73.3188 34.0791C73.156 33.9318 72.8387 33.9236 72.3612 34.0592L74.1715 40.3932L70.7227 41.3767L66.7159 27.3383V27.3383ZM70.8502 28.7602L71.7418 31.8825C72.1288 31.7695 72.3847 31.6384 72.5086 31.4793C72.6325 31.3202 72.6054 30.9334 72.4272 30.3178L72.2066 29.5467C72.0791 29.101 71.9199 28.8298 71.73 28.7331C71.5401 28.6364 71.249 28.6472 70.8502 28.7602V28.7602ZM79.7047 24.3119L82.2393 24.2197C83.9285 24.1573 85.076 24.1844 85.68 24.301C86.285 24.4167 86.785 24.7539 87.1838 25.308C87.5835 25.8622 87.8041 26.7607 87.8502 28.0036C87.8927 29.139 87.7842 29.9101 87.5328 30.3087C87.2805 30.7083 86.7651 30.9632 85.9829 31.068C86.6991 31.2308 87.1838 31.4595 87.4388 31.7659C87.6956 32.0678 87.8584 32.3508 87.9244 32.6102C87.994 32.8696 88.0483 33.5901 88.0944 34.7679L88.2336 38.6188L84.906 38.7381L84.7269 33.8884C84.6998 33.1056 84.622 32.6256 84.4981 32.4439C84.3743 32.2613 84.0686 32.1799 83.5722 32.1998L83.8127 38.7806L80.2319 38.9126L79.7047 24.3128V24.3119ZM83.3787 26.6793L83.4989 29.9254C83.9013 29.9101 84.1808 29.8405 84.3399 29.7202C84.4981 29.5964 84.5642 29.2122 84.5406 28.5695L84.5099 27.7677C84.4945 27.3067 84.405 27.0048 84.2422 26.8656C84.0795 26.7254 83.7901 26.664 83.3787 26.6793V26.6793ZM98.9446 25.6606L98.1307 40.3887L94.5345 39.6791L94.8528 37.0649L93.5932 36.8172L92.8725 39.3501L89.2374 38.6341L93.8527 24.6536L98.9446 25.6606V25.6606ZM95.2633 34.5085C95.4071 32.8497 95.6196 30.8086 95.9144 28.3833C95.0156 31.0563 94.3952 33.0206 94.0543 34.2717L95.2633 34.5085ZM112.469 30.8158L106.385 44.0995L103.529 42.7905L104.599 35.9765L101.832 42.0149L99.1073 40.7675L105.191 27.4848L107.916 28.7322L107.005 35.5508L109.745 29.5693L112.469 30.8167V30.8158ZM122.544 37.9101L120.765 40.2305L119.076 38.9361L111.969 48.2106L109.125 46.033L116.231 36.7584L114.55 35.4694L116.329 33.1489L122.544 37.9101ZM130.915 47.1367L122.094 51.1304L118.045 54.532L115.91 51.991L119.96 48.5894L125.477 40.6635L127.597 43.1856C125.745 45.4129 124.463 46.8701 123.749 47.5553C125.07 46.7028 126.752 45.7266 128.802 44.6156L130.915 47.1376V47.1367Z" fill="white"/>
<path d="M26.3219 66.5601V88.575H31.2194V94.0837H18.265V66.5601H26.3219ZM42.0153 66.5601V94.0837H33.9593V66.5601H42.0162H42.0153ZM46.0302 66.5601H59.6754V72.0688H54.0871V77.2864H59.0623V82.5239H54.0862V94.0837H46.0302V66.5601ZM62.4108 66.5601H75.8453V72.0688H70.4668V77.2864H75.5007V82.5239H70.4668V88.575H76.3806V94.0837H62.4098V66.5601H62.4108ZM95.1936 66.5601V72.0688H90.4074V94.0837H82.3514V72.0688H77.586V66.5601H95.1936ZM105.869 66.5601V94.0837H97.8132V66.5601H105.869ZM134.743 66.5601V94.0837H127.702L127.694 75.5002L124.892 94.0837H119.897L116.941 75.9269L116.933 94.0837H109.892V66.5601H120.316C120.626 68.2144 120.943 70.1669 121.273 72.4132L122.416 79.4134L124.268 66.5592H134.743V66.5601ZM138.762 66.5601H152.196V72.0688H146.818V77.2864H151.852V82.5239H146.818V88.575H152.731V94.0837H138.762V66.5601V66.5601Z" fill="black"/>
<defs>
<linearGradient id="paint0_linear_2509_22" x1="112.92" y1="4.92565" x2="58.6131" y2="154.182" gradientUnits="userSpaceOnUse">
<stop stop-color="#F5B047"/>
<stop offset="1" stop-color="#FFCF6E"/>
</linearGradient>
<linearGradient id="paint1_linear_2509_22" x1="112.48" y1="152.964" x2="59.0511" y2="6.12234" gradientUnits="userSpaceOnUse">
<stop stop-color="#DE6E00"/>
<stop offset="1" stop-color="#FFEB91"/>
</linearGradient>
<linearGradient id="paint2_linear_2509_22" x1="108.353" y1="141.61" x2="63.179" y2="17.4556" gradientUnits="userSpaceOnUse">
<stop stop-color="#FFE672"/>
<stop offset="0.616" stop-color="#EDA117"/>
</linearGradient>
<linearGradient id="paint3_linear_2509_22" x1="5.30244" y1="79.9042" x2="165.647" y2="79.9042" gradientUnits="userSpaceOnUse">
<stop stop-color="#B86300"/>
<stop offset="0.335" stop-color="#DE8A00"/>
<stop offset="0.758" stop-color="#FFFFBA"/>
<stop offset="1" stop-color="#B86300"/>
</linearGradient>
<linearGradient id="paint4_linear_2509_22" x1="1.08691" y1="79.9041" x2="169.911" y2="79.9041" gradientUnits="userSpaceOnUse">
<stop stop-color="#F5B536"/>
<stop offset="0.44" stop-color="#FFEB87"/>
<stop offset="0.582" stop-color="#FFEB87"/>
<stop offset="1" stop-color="#F5B536"/>
</linearGradient>
</defs>
</svg>
