<?xml version="1.0" encoding="utf-8"?><svg viewBox="0 0 171 160" xmlns="http://www.w3.org/2000/svg" xmlns:xlink="http://www.w3.org/1999/xlink"><style>:root>svg{display:none}:root>svg:target{display:block}</style><svg viewBox="0 0 151 50" id="footer-logo" xmlns="http://www.w3.org/2000/svg"><g clip-path="url(#aa)"><path d="M46.75 0h98.75a5.002 5.002 0 015 5v40a5.002 5.002 0 01-5 5H46.75V0z"/><path d="M63.441 25a6.564 6.564 0 014.524 1.474 4.918 4.918 0 011.657 3.858 4.876 4.876 0 01-1.652 3.854 6.614 6.614 0 01-4.529 1.456h-2.815v3.704l1.789.344v2.006H55.5V39.69l1.778-.344V27.363l-1.778-.34v-2.018h7.941V25zm-2.815 8.061h2.815a2.767 2.767 0 002.125-.762 2.73 2.73 0 00.713-1.944 2.839 2.839 0 00-.713-1.989 2.72 2.72 0 00-2.125-.786h-2.815v5.481zm17.923 8.635a6.041 6.041 0 01-.242-.636 5.018 5.018 0 01-.16-.659 4.608 4.608 0 01-1.45 1.113 4.344 4.344 0 01-1.954.423 4.096 4.096 0 01-2.895-.992 3.499 3.499 0 01-1.073-2.7 3.07 3.07 0 011.399-2.695 7.307 7.307 0 014.105-.951h1.709v-1.215a1.83 1.83 0 00-.517-1.388 2.125 2.125 0 00-1.525-.492 3.608 3.608 0 00-1.02.131 2.672 2.672 0 00-.722.315l-.219 1.324h-2.522l.01-2.75a9.398 9.398 0 012.105-1.044 7.626 7.626 0 012.586-.424 5.888 5.888 0 013.75 1.125 3.85 3.85 0 011.439 3.216v5.665c.003.161.016.322.04.481l1.02.138v2.016h-3.864zm-2.902-2.236c.479.006.951-.106 1.375-.326.383-.192.714-.473.964-.82V36.42H76.28a2.333 2.333 0 00-1.618.5 1.56 1.56 0 00-.55 1.199 1.24 1.24 0 00.408.986c.32.253.722.379 1.128.354zm8.154.229l1.605-.344v-7.696l-1.777-.341v-2.02h4.896l.149 1.812a3.905 3.905 0 011.125-1.5 2.51 2.51 0 011.593-.539c.187 0 .373.014.557.04.164.02.327.053.487.098l-.355 3.05-1.375-.035a2.345 2.345 0 00-1.215.286 1.852 1.852 0 00-.734.814v6.031l1.605.344v2.007h-6.56V39.69zm14.85-13.44v3.039h2.179v2.35h-2.179v6.32c-.035.37.072.738.299 1.032a1.063 1.063 0 00.802.31 5.76 5.76 0 00.602-.026c.171-.02.364-.052.579-.098l.286 2.42a8.059 8.059 0 01-1.113.258c-.394.06-.793.088-1.192.086a3.568 3.568 0 01-2.666-.951 4.174 4.174 0 01-.932-3.019v-6.33h-1.825v-2.351h1.825V26.25l3.335-.001zm3.635 13.441l1.605-.344V31.65l-1.777-.344v-2.019h4.896l.149 1.778a4.539 4.539 0 011.525-1.479 3.959 3.959 0 012.03-.527 3.73 3.73 0 012.936 1.18 5.458 5.458 0 011.055 3.705v5.4l1.605.344v2.01h-6.397V39.69l1.433-.344v-5.39a2.508 2.508 0 00-.5-1.771 2.03 2.03 0 00-1.525-.521 2.582 2.582 0 00-1.192.27c-.351.18-.654.44-.883.762v6.651l1.354.344v2.005h-6.314V39.69zm20.917 2.25a5.585 5.585 0 01-4.289-1.72 6.15 6.15 0 01-1.605-4.375v-.459a6.787 6.787 0 011.52-4.552 5.044 5.044 0 014.076-1.778 5.023 5.023 0 013.899 1.518 5.825 5.825 0 011.387 4.093v1.824h-7.407l-.023.069a3.24 3.24 0 00.82 2.019 2.559 2.559 0 001.978.791 6.44 6.44 0 001.846-.221 8.484 8.484 0 001.605-.705l.906 2.063c-.6.45-1.273.794-1.99 1.017a8.466 8.466 0 01-2.723.413v.003zm-.299-10.297a1.751 1.751 0 00-1.468.71 3.713 3.713 0 00-.665 1.876l.035.057h4.105v-.299a2.684 2.684 0 00-.5-1.702 1.796 1.796 0 00-1.506-.645l-.001.002zm7.125 8.05l1.605-.344v-7.7l-1.78-.341v-2.02h4.896l.149 1.812a3.902 3.902 0 011.125-1.5 2.51 2.51 0 011.594-.539 4.082 4.082 0 011.043.138l-.355 3.05-1.375-.035a2.347 2.347 0 00-1.215.286 1.846 1.846 0 00-.733.814v6.031l1.605.344v2.007h-6.562l.003-2.003zm-82.654 9.682H5.5A4.38 4.38 0 011.125 45V5A4.38 4.38 0 015.5.625h41.875v48.75z"/><path d="M5.5 1.25A3.754 3.754 0 001.75 5v40a3.754 3.754 0 003.75 3.75h41.25V1.25H5.5zM5.5 0H48v50H5.5a5 5 0 01-5-5V5a5 5 0 015-5z"/></g><rect x="1.5" y="1" width="148" height="48" rx="7"/><defs><clipPath id="aa"><rect x=".5" width="150" height="50" rx="8"/></clipPath></defs></svg><svg viewBox="0 0 60 60" id="icon-1" xmlns="http://www.w3.org/2000/svg"><g clip-path="url(#ba)"><path fill-rule="evenodd" clip-rule="evenodd" d="M56.342 5.143H2.927C1.317 5.143 0 6.343 0 7.81v35.333c0 1.467 1.317 2.667 2.927 2.667h25.01l-1.91 4.583v-.003a2.07 2.07 0 00-.166.797c0 .235.045.495.159.753.165.388.509.748.902.951a2.44 2.44 0 001.146.277 2.8 2.8 0 00.453-.038h-.001l2.4-.392 1.508 1.744v.001a2.36 2.36 0 001.788.823 2.279 2.279 0 001.396-.474c.35-.276.55-.593.675-.889l1.598-3.835 1.598 3.834v.001c.124.296.325.613.675.89.341.275.869.48 1.396.473a2.362 2.362 0 001.787-.823l1.509-1.745 2.4.392h-.002a2.8 2.8 0 00.454.038c.233 0 .488-.03.752-.112a2.15 2.15 0 001.076-.742c.273-.36.381-.776.378-1.126 0-.302-.07-.565-.165-.796l-1.91-4.582h8.509c1.61 0 2.926-1.2 2.926-2.666V7.81c0-1.467-1.317-2.667-2.926-2.667zm-4.624 37.333L48.79 39.81h3.116l2.927 2.666h-3.116zm-14.035 0c-3.833 0-6.951-2.84-6.951-6.333 0-3.492 3.118-6.333 6.95-6.333 3.834 0 6.952 2.841 6.952 6.333s-3.118 6.333-6.951 6.333zm0-16c-5.862 0-10.61 4.328-10.61 9.667 0 .57.065 1.125.168 1.667H8.781V13.143h41.707V37.81h-2.364a8.833 8.833 0 00.169-1.667c0-5.339-4.748-9.667-10.61-9.667zm15 12.626v-3.006l2.927 2.667v3.005l-2.927-2.666zm0-4.419v-2.827l2.927 2.668v2.826l-2.927-2.667zM3.659 42.476v-34h51.95V33.11l-2.926-2.667V11.81c0-.367-.33-.667-.732-.667H7.317c-.402 0-.732.3-.732.667v27.333c0 .367.33.667.732.667h20.55a9.476 9.476 0 001.567 2.406l-.109.26H3.66zm30.095 8.155l-.188-.218a2.989 2.989 0 00-1.128-.79c-.4-.161-.82-.261-1.314-.264-.154 0-.32.011-.501.042l.01-.002-.3.049 2.058-4.935c1.047.55 2.204.941 3.438 1.14l-2.075 4.978zm11.392-1.23a2.972 2.972 0 00-.502-.041 3.456 3.456 0 00-1.314.264c-.396.167-.78.396-1.127.79l-.188.217-2.101-5.04a11.132 11.132 0 003.388-1.26l2.133 5.116-.3-.049.01.003zm1.053-7.51a9.458 9.458 0 001.223-1.915l2.744 2.5h-3.723l-.244-.585zM16.098 18.81h20.487c.607 0 1.098.448 1.098 1s-.491 1-1.098 1H16.098c-.607 0-1.098-.448-1.098-1s.491-1 1.098-1zm0 6.666h8.048c.607 0 1.098.448 1.098 1s-.491 1-1.098 1h-8.048c-.607 0-1.098-.448-1.098-1s.491-1 1.098-1zm17.56 10.667c0-2.025 1.801-3.667 4.025-3.667s4.024 1.642 4.024 3.667-1.8 3.667-4.024 3.667-4.025-1.642-4.025-3.667zm2.196 0c0 .92.82 1.667 1.829 1.667 1.008 0 1.83-.748 1.83-1.667 0-.92-.822-1.667-1.83-1.667s-1.83.748-1.83 1.667z"/></g><defs><clipPath id="ba"><path d="M0 0h60v60H0z"/></clipPath></defs></svg><svg viewBox="0 0 60 60" id="icon-2" xmlns="http://www.w3.org/2000/svg"><path d="M20.667 23.381H14a1 1 0 010-2h6.667a1 1 0 010 2zm18.666 0H46a1 1 0 000-2h-6.667a1 1 0 000 2zm-6 0h-6.666a1 1 0 010-2h6.666a1 1 0 010 2z"/><path fill-rule="evenodd" clip-rule="evenodd" d="M2.667 7.714h54.666c1.467 0 2.667 1.2 2.667 2.667v4.667c0 1.466-1.2 2.666-2.667 2.666h-.666v32c0 1.467-1.2 2.667-2.667 2.667H6a2.674 2.674 0 01-2.667-2.667v-32h-.666A2.675 2.675 0 010 15.048V10.38c0-1.467 1.2-2.667 2.667-2.667zM41 34.048v-3.334H19v3.334h22zm0 2H19v3.333h22v-3.333zm0 5.333H19v7.667h22V41.38zm11.443-2.02l.89.89V17.714H6.667v31.334H17V30.714h-3a1 1 0 010-2h32a1 1 0 010 2h-3v18.334h3.831l-1.008-1.008a.5.5 0 11.708-.708l1.714 1.716h3.215l-3.308-3.309a.5.5 0 01.707-.707l4.016 4.016h.458v-2.756l-4.04-4.038a.5.5 0 11.708-.708l3.332 3.332v-3.213l-1.597-1.597a.5.5 0 01.707-.707zm-49.11-24.98h53.334v-3.333H3.333v3.333z"/></svg><svg viewBox="0 0 60 60" id="icon-3" xmlns="http://www.w3.org/2000/svg"><path fill-rule="evenodd" clip-rule="evenodd" d="M35.37 41.942a4.344 4.344 0 01-1.541 1.62c-.93.577-2.029.865-3.21.981v1.05a1 1 0 01-2 0V44.58c-1.456-.112-2.703-.584-3.634-1.372a4.702 4.702 0 01-1.675-3.656.933.933 0 011.866 0c.007.927.35 1.662 1.014 2.232.552.466 1.37.8 2.428.907v-7.06l-.057-.015-.09-.023a22.77 22.77 0 01-.28-.07c-1.036-.278-2.07-.597-2.966-1.183a4.258 4.258 0 01-1.316-1.324c-.391-.636-.601-1.416-.6-2.292a4.845 4.845 0 011.375-3.374c.87-.898 2.193-1.527 3.934-1.653v-.967a1 1 0 012 0v1.022c.968.11 1.828.34 2.561.696 1.05.51 1.85 1.288 2.3 2.236a4.71 4.71 0 01.448 2.04.933.933 0 01-1.867 0 2.83 2.83 0 00-.264-1.235 2.688 2.688 0 00-.797-.97c-.529-.413-1.316-.742-2.38-.892v6.582l.089.023.352.094c1.048.297 2.097.664 2.994 1.322.51.376.967.858 1.296 1.458.378.685.579 1.51.578 2.446 0 .898-.188 1.708-.558 2.39zm-9.774-9.762c.256.35.652.644 1.196.901.512.245 1.142.44 1.828.621v-6.13c-.538.05-.995.156-1.375.3a3.352 3.352 0 00-1.226.783 2.984 2.984 0 00-.841 2.07c.004.685.164 1.105.418 1.455zm8.019 5.66c-.272-.41-.669-.738-1.207-1.024-.502-.27-1.118-.48-1.788-.67v6.514c.576-.068 1.102-.18 1.542-.348.761-.294 1.261-.694 1.566-1.256.204-.378.332-.858.333-1.504-.003-.783-.177-1.3-.446-1.712z"/><path d="M14.704 29.601a1 1 0 00-1.316.52 16.99 16.99 0 00-.697 1.903 1 1 0 101.917.573c.169-.569.375-1.13.615-1.681a1 1 0 00-.52-1.315zm.585-2.867c1.726-2.472 3.987-4.583 6.462-6.148a1 1 0 111.068 1.691c-2.253 1.422-4.33 3.365-5.89 5.601a1 1 0 11-1.64-1.144z"/><path fill-rule="evenodd" clip-rule="evenodd" d="M53.62 36.928c0 2.769-.512 5.839-1.338 7.769a7.253 7.253 0 012.67 5.624c0 4.017-3.263 7.272-7.288 7.272a7.278 7.278 0 01-5.687-2.73c-3.607 1.731-7.836 2.73-12.358 2.73s-8.75-.999-12.359-2.73a7.279 7.279 0 01-5.687 2.73c-4.025 0-7.287-3.255-7.287-7.272 0-2.267 1.04-4.29 2.67-5.625-.826-1.928-1.338-5-1.337-7.77.003-10.546 9.038-20.439 18.184-23.609l-.028-.078c-.03-.08-.06-.162-.08-.246l-2.15-9.466c-.255-1.117.21-1.813 1.08-1.813.243 0 .518.054.817.17l3.69 1.419c.683.263 1.586.395 2.488.395.902 0 1.804-.132 2.488-.395l3.69-1.42a2.3 2.3 0 01.817-.169c.869 0 1.335.696 1.08 1.813l-2.151 9.466c-.02.088-.052.172-.083.257l-.025.067c9.146 3.17 18.183 13.063 18.183 23.61zM26.927 12.18l.1.079h5.183l.099-.079 1.34-5.9-.345.132c-1.327.51-2.737.617-3.686.617-.949 0-2.359-.106-3.684-.616l-.347-.134 1.34 5.901zM11.571 54.26a3.948 3.948 0 003.09-1.486 3.37 3.37 0 01.6-.577 24.09 24.09 0 01-2.489-1.992 23.11 23.11 0 01-3.153-3.524 3.3 3.3 0 01-.553.594 3.924 3.924 0 00-1.449 3.046c0 2.172 1.774 3.938 3.954 3.938zm6.688-2.574a3.3 3.3 0 01.442.17c3.275 1.572 7.05 2.403 10.916 2.403.781 0 1.556-.043 2.326-.11l-.19-1.366a.501.501 0 01.991-.138l.195 1.399c.74-.093 1.474-.213 2.196-.366l-.358-1.95a.5.5 0 01.984-.18l.348 1.897a24.45 24.45 0 002.203-.67l-.707-1.921a.5.5 0 01.938-.345l.702 1.905c.08-.03.158-.061.238-.093l.026-.01c.288-.122.575-.248.856-.38.28-.136.56-.281.846-.442l-1.564-2.569a.5.5 0 11.854-.52l1.566 2.572c.641-.41 1.289-.88 1.931-1.403l-2.263-3.03a.5.5 0 01.8-.598l2.225 2.978.095-.082c.04-.035.081-.07.122-.108 2.248-2.052 3.844-4.354 4.551-6.234.457-1.516.757-3.646.757-5.568 0-5.027-2.551-10.405-6.998-14.756-4.148-4.058-9.386-6.579-13.669-6.579-4.283 0-9.52 2.52-13.668 6.578-4.447 4.351-6.997 9.73-6.999 14.756 0 2.333.44 4.988 1.068 6.457.036.084.062.17.088.256l.023.074c.845 1.607 2.21 3.388 3.993 5.016 1.362 1.248 2.79 2.242 4.136 2.957zm26.315 1.087a3.946 3.946 0 003.089 1.486c2.181 0 3.955-1.767 3.955-3.939 0-1.181-.528-2.29-1.449-3.045a3.32 3.32 0 01-.624-.69 22.957 22.957 0 01-3.218 3.618 23.998 23.998 0 01-2.422 1.946c.245.174.473.38.67.624z"/></svg><svg viewBox="0 0 60 60" id="icon-4" xmlns="http://www.w3.org/2000/svg"><path d="M60 20.777c-.001-1.006-.301-2.037-.983-2.902l-4.648-5.864a4.499 4.499 0 00-1.669-1.293 4.863 4.863 0 00-2.004-.432c-.817 0-1.659.207-2.408.667l-4.533 2.78a2.636 2.636 0 01-.732.286 4.263 4.263 0 01-.999.116c-.53.004-1.036-.108-1.307-.243l-4.438-2.119c-.834-.394-1.725-.544-2.61-.547a7.21 7.21 0 00-1.886.249c-.614.168-1.21.42-1.754.796l-.192.133-1.409-.691c-.994-.477-2.085-.648-3.188-.656-.995.005-1.99.15-2.916.533l-3.023 1.272c-.373.163-1.085.297-1.79.291-.704.006-1.417-.128-1.789-.291l-3.025-1.272a5.122 5.122 0 00-1.99-.384c-.761 0-1.51.148-2.214.427-.702.284-1.364.701-1.904 1.295L1.08 19.01A4.145 4.145 0 000 21.796a4.16 4.16 0 001.493 3.185l4.581 3.852-1.941 2.047.003.002a4.187 4.187 0 00-1.179 2.908 4.2 4.2 0 001.338 3.07l.494.463a4.27 4.27 0 001.184.768 4.192 4.192 0 00-.231 1.323 4.196 4.196 0 001.337 3.07l.495.465a4.363 4.363 0 003.977 1.05c.222.509.549.985.983 1.389l.496.465a4.402 4.402 0 004.662.836c.213.395.49.766.836 1.089l.497.465a4.358 4.358 0 002.981 1.168 4.359 4.359 0 003.128-1.31l1.687-1.736 2.47 2.225-.01-.008a4.36 4.36 0 002.941 1.132 4.363 4.363 0 003.166-1.35l.466-.493c.231-.245.415-.514.577-.793l.438.397a4.358 4.358 0 002.938 1.129 4.357 4.357 0 003.169-1.35l.466-.492a4.155 4.155 0 00.956-1.682c.133.013.263.036.396.036a4.355 4.355 0 003.169-1.351l.465-.491v-.002a4.192 4.192 0 001.152-2.884c0-.095-.008-.189-.014-.283a4.312 4.312 0 001.93-1.173l.465-.493a4.19 4.19 0 001.153-2.885 4.196 4.196 0 00-1.26-2.989l-.468-.525 7.407-8.076c.833-.913 1.204-2.06 1.207-3.187zm-28.917-5.244l.865-.6c.161-.112.418-.233.725-.316.308-.084.66-.13.998-.13.472-.003.909.096 1.154.218l4.438 2.12c.88.413 1.82.567 2.762.571.605 0 1.21-.068 1.8-.211a5.951 5.951 0 001.693-.686l4.532-2.78c.176-.108.4-.172.647-.172.208 0 .423.046.608.13.184.084.333.201.44.336l4.648 5.864c.165.203.284.538.283.9.003.407-.15.796-.352 1.007l-.7.764-1.12-1.097a.505.505 0 00-.706 0 .483.483 0 000 .692l1.156 1.133-1.518 1.656-2.196-2.154a.505.505 0 00-.705 0 .483.483 0 000 .692l2.233 2.19-1.52 1.657-1.776-1.744a.505.505 0 00-.705 0 .483.483 0 000 .692l1.814 1.78L49.1 29.66l-2.845-2.595a52.814 52.814 0 00-4.265-3.43l-5.102-3.605a5.266 5.266 0 00-1.623-.758 6.46 6.46 0 00-1.735-.235c-.992.004-1.997.212-2.905.744l-1.842 1.092c-.171.1-.384.159-.618.159-.208 0-.425-.048-.61-.135a1.15 1.15 0 01-.44-.347l-.407-.54h-.001a.996.996 0 01.205-1.39l4.171-3.087zM6.993 34.992l-.04-.038-.003-.002-.002-.001a1.61 1.61 0 01-.512-1.18 1.61 1.61 0 01.456-1.125l4.796-4.932a1.67 1.67 0 011.204-.503c.416 0 .824.149 1.145.447l.04.037.002.003a1.611 1.611 0 01.054 2.305l-4.79 4.931c-.325.334-.76.502-1.206.503-.418 0-.825-.148-1.144-.445zm6.257 4.496l-1.02 1.048a1.666 1.666 0 01-1.203.503c-.418 0-.826-.148-1.146-.447l-.51-.477a1.602 1.602 0 01-.513-1.181c.002-.41.151-.81.456-1.124l6.399-6.585a1.67 1.67 0 011.204-.503c.418.002.825.148 1.145.448l.51.477a1.614 1.614 0 01.057 2.306L17.61 35c-.024.023-.05.04-.074.063L13.321 39.4c-.027.028-.045.061-.071.089zm6.032 2.315l-1.615 1.664c-.325.334-.76.501-1.206.503a1.67 1.67 0 01-1.145-.448l-.497-.466a1.605 1.605 0 01-.131-2.212l4.369-4.497a1.672 1.672 0 011.124-.435c.418 0 .825.149 1.147.448l.495.465c.34.318.511.743.512 1.18a1.602 1.602 0 01-.44 1.105c-.006.008-2.574 2.646-2.574 2.646-.014.014-.025.032-.039.047zm6.461.948l-2.551 2.626c-.325.334-.76.502-1.204.503a1.673 1.673 0 01-1.147-.448l-.02-.02a1.607 1.607 0 01-.095-2.258l2.615-2.695a1.67 1.67 0 011.179-.482c.418.002.826.148 1.147.448l.022.021a1.611 1.611 0 01.054 2.305zm23.505-6.295l-.222.234a1.673 1.673 0 01-1.22.517 1.673 1.673 0 01-1.063-.383l-6.347-5.775a1.01 1.01 0 00-1.409.051.965.965 0 00.052 1.382l6.864 6.246a1.616 1.616 0 01.085 2.306l-.478.505a1.676 1.676 0 01-1.219.518 1.67 1.67 0 01-1.13-.433L36.3 35.369a1.011 1.011 0 00-1.41.051.965.965 0 00.053 1.382l6.012 5.48a1.612 1.612 0 01.07 2.286l-.48.507a1.675 1.675 0 01-1.222.518c-.41 0-.812-.143-1.131-.432l-6.267-5.702a1.01 1.01 0 00-1.408.052.967.967 0 00.053 1.383l3.188 2.904a1.612 1.612 0 01.099 2.291c-.32.338-.756.508-1.206.51a1.682 1.682 0 01-1.136-.436l-3.577-3.22a3.544 3.544 0 00-.873-3.915l-.006-.005-.022-.02.006.005a3.684 3.684 0 00-2.523-.99c-.064 0-.128.016-.192.02l.002-.035a3.543 3.543 0 00-1.13-2.596l-.495-.465a3.672 3.672 0 00-1.842-.926c.137-.385.215-.787.215-1.188a3.547 3.547 0 00-1.13-2.598l-.51-.477a3.683 3.683 0 00-2.521-.988c-.115 0-.228.023-.34.034a3.546 3.546 0 00-1.121-2.515l-.042-.04a3.688 3.688 0 00-2.523-.99c-.96 0-1.93.372-2.647 1.11l-.898.923-5.69-4.784a.916.916 0 01-.092-1.326l5.51-6.083c.138-.154.377-.323.676-.442.296-.12.647-.187.958-.186.274-.001.514.05.68.12l3.025 1.273c.971.4 2.031.55 3.098.556 1.067-.006 2.127-.154 3.1-.556l3.023-1.272c.352-.154.982-.274 1.607-.27.629-.006 1.251.123 1.595.27l-1.925 1.424a4.24 4.24 0 00-1.725 3.409 4.2 4.2 0 00.852 2.532l-.001-.001.407.54a4.483 4.483 0 001.679 1.347c.64.299 1.334.452 2.04.453.792 0 1.605-.197 2.337-.629l1.842-1.093c.244-.15.702-.277 1.186-.273.285 0 .573.04.822.11.25.069.457.17.595.268l5.102 3.605c1.102.777 2.95 2.265 3.946 3.173l1.725 1.573.008-.008 3.433 3.131c.35.32.528.753.529 1.197 0 .404-.146.798-.44 1.11z"/></svg><svg viewBox="0 0 150 50" id="logo" xmlns="http://www.w3.org/2000/svg"><path d="M46.25 0H145a5.002 5.002 0 015 5v40a5.002 5.002 0 01-5 5H46.25V0z"/><path d="M62.941 25a6.564 6.564 0 014.524 1.474 4.918 4.918 0 011.657 3.858 4.876 4.876 0 01-1.652 3.854 6.614 6.614 0 01-4.529 1.456h-2.815v3.704l1.789.344v2.006H55V39.69l1.778-.344V27.363L55 27.023v-2.018h7.941V25zm-2.815 8.061h2.815a2.767 2.767 0 002.125-.762 2.73 2.73 0 00.713-1.944 2.839 2.839 0 00-.713-1.989 2.72 2.72 0 00-2.125-.786h-2.815v5.481zm17.923 8.635a6.041 6.041 0 01-.242-.636 5.018 5.018 0 01-.16-.659 4.608 4.608 0 01-1.45 1.113 4.344 4.344 0 01-1.954.423 4.096 4.096 0 01-2.895-.992 3.499 3.499 0 01-1.073-2.7 3.07 3.07 0 011.399-2.695 7.307 7.307 0 014.105-.951h1.709v-1.215a1.83 1.83 0 00-.517-1.388 2.125 2.125 0 00-1.525-.492 3.608 3.608 0 00-1.02.131 2.672 2.672 0 00-.722.315l-.219 1.324h-2.522l.01-2.75a9.398 9.398 0 012.105-1.044 7.626 7.626 0 012.586-.424 5.887 5.887 0 013.75 1.125 3.85 3.85 0 011.439 3.216v5.665c.003.161.016.322.04.481l1.02.138v2.016h-3.864zm-2.902-2.236c.479.006.951-.106 1.375-.326.383-.192.714-.473.964-.82V36.42H75.78a2.333 2.333 0 00-1.618.5 1.56 1.56 0 00-.55 1.199 1.24 1.24 0 00.408.986c.32.253.722.379 1.128.354zm8.154.229l1.605-.344v-7.696l-1.777-.341v-2.02h4.896l.149 1.812a3.905 3.905 0 011.125-1.5 2.51 2.51 0 011.593-.539c.187 0 .373.014.557.04.164.02.327.053.487.098l-.355 3.05-1.375-.035a2.345 2.345 0 00-1.215.286 1.852 1.852 0 00-.734.814v6.031l1.605.344v2.007h-6.56V39.69zm14.85-13.44v3.039h2.179v2.35h-2.179v6.32c-.035.37.072.738.299 1.032a1.063 1.063 0 00.802.31 5.76 5.76 0 00.602-.026c.171-.02.364-.052.579-.098l.286 2.42a8.075 8.075 0 01-1.113.258 7.74 7.74 0 01-1.192.086 3.568 3.568 0 01-2.666-.951 4.174 4.174 0 01-.932-3.019v-6.33h-1.825v-2.351h1.825V26.25l3.335-.001zm3.635 13.441l1.605-.344V31.65l-1.777-.344v-2.019h4.896l.149 1.778a4.539 4.539 0 011.525-1.479 3.959 3.959 0 012.03-.527 3.73 3.73 0 012.936 1.18 5.458 5.458 0 011.055 3.705v5.4l1.605.344v2.01h-6.397V39.69l1.433-.344v-5.39a2.508 2.508 0 00-.5-1.771 2.03 2.03 0 00-1.525-.521 2.582 2.582 0 00-1.192.27c-.351.18-.654.44-.883.762v6.651l1.354.344v2.005h-6.314V39.69zm20.917 2.25a5.585 5.585 0 01-4.289-1.72 6.15 6.15 0 01-1.605-4.375v-.459a6.787 6.787 0 011.52-4.552 5.044 5.044 0 014.076-1.778 5.023 5.023 0 013.899 1.518 5.825 5.825 0 011.387 4.093v1.824h-7.407l-.023.069a3.24 3.24 0 00.82 2.019 2.559 2.559 0 001.978.791 6.44 6.44 0 001.846-.221 8.484 8.484 0 001.605-.705l.906 2.063c-.6.45-1.273.794-1.99 1.017a8.466 8.466 0 01-2.723.413v.003zm-.299-10.297a1.751 1.751 0 00-1.468.71 3.713 3.713 0 00-.665 1.876l.035.057h4.105v-.299a2.684 2.684 0 00-.5-1.702 1.796 1.796 0 00-1.506-.645l-.001.002zm7.125 8.05l1.605-.344v-7.7l-1.78-.341v-2.02h4.896l.149 1.812a3.902 3.902 0 011.125-1.5 2.51 2.51 0 011.594-.539 4.082 4.082 0 011.043.138l-.355 3.05-1.375-.035a2.347 2.347 0 00-1.215.286 1.846 1.846 0 00-.733.814v6.031l1.605.344v2.007h-6.562l.003-2.003zm-82.654 9.682H5A4.38 4.38 0 01.625 45V5A4.38 4.38 0 015 .625h41.875v48.75z"/><path d="M5 1.25A3.754 3.754 0 001.25 5v40A3.754 3.754 0 005 48.75h41.25V1.25H5zM5 0h42.5v50H5a5 5 0 01-5-5V5a5 5 0 015-5z"/></svg><svg viewBox="0 0 171 160" id="warranty" xmlns="http://www.w3.org/2000/svg"><path d="M38.56 101.735H5.302l26.13 12.961 7.125-12.961h.001zm93.78-.002h33.307l-26.18 12.962-7.127-12.962z"/><path d="M85.75 159.105c-1.085 0-2.12-.252-2.918-.709l-5.949-3.409c-.685-.395-1.855-.658-2.902-.658a4.34 4.34 0 00-.988.1l-6.669 1.596a5.059 5.059 0 01-1.162.132c-1.659 0-3.399-.698-4.433-1.774l-4.748-4.947c-.763-.798-2.468-1.577-3.576-1.631l-6.848-.345c-1.882-.096-4.037-1.479-4.905-3.149l-3.163-6.082c-.511-.984-1.926-2.212-2.972-2.576l-6.47-2.263c-1.78-.619-3.458-2.556-3.818-4.404l-1.317-6.729c-.21-1.085-1.225-2.661-2.124-3.308l-5.572-3.99c-1.531-1.096-2.597-3.425-2.423-5.299l.632-6.826c.104-1.104-.426-2.902-1.108-3.773l-4.223-5.4c-1.164-1.484-1.528-4.018-.83-5.768l2.53-6.369c.407-1.03.407-2.905 0-3.932l-2.53-6.372c-.697-1.747-.33-4.285.83-5.767l4.223-5.402c.682-.87 1.209-2.668 1.108-3.773l-.632-6.824c-.174-1.876.892-4.204 2.423-5.304l5.575-3.994c.9-.647 1.915-2.224 2.125-3.309l1.317-6.728c.364-1.852 2.038-3.785 3.816-4.405l6.476-2.262c1.047-.364 2.46-1.592 2.973-2.576l3.162-6.082c.868-1.673 3.022-3.056 4.905-3.15l6.847-.344c1.105-.054 2.81-.833 3.578-1.635l4.747-4.946c1.033-1.078 2.774-1.771 4.433-1.771.406 0 .798.042 1.162.132L73 4.675c.324.072.656.106.988.102 1.046 0 2.217-.268 2.902-.66L82.84.71C83.638.25 84.673 0 85.758 0c1.081 0 2.116.252 2.914.709l5.948 3.413c.686.395 1.856.658 2.902.658.332.005.664-.029.988-.1l6.669-1.597a5.127 5.127 0 011.163-.132c1.659 0 3.398.695 4.429 1.771l4.748 4.947c.766.798 2.472 1.577 3.576 1.635l6.848.344c1.882.097 4.034 1.48 4.905 3.15l3.158 6.082c.512.98 1.926 2.208 2.972 2.576l6.472 2.262c1.779.624 3.457 2.557 3.821 4.404l1.317 6.73c.213 1.084 1.225 2.66 2.128 3.308l5.573 3.994c1.534 1.096 2.599 3.428 2.421 5.303l-.627 6.821c-.105 1.1.422 2.902 1.104 3.773l4.224 5.4c1.163 1.484 1.527 4.022.829 5.769l-2.53 6.373c-.411 1.026-.411 2.901 0 3.932l2.53 6.372c.698 1.75.334 4.284-.829 5.768l-4.221 5.4c-.681.872-1.209 2.669-1.107 3.773l.631 6.825c.174 1.875-.891 4.204-2.422 5.304l-5.573 3.99c-.898.647-1.914 2.224-2.123 3.308l-1.317 6.728c-.361 1.849-2.038 3.782-3.817 4.405l-6.476 2.263c-1.042.363-2.46 1.592-2.972 2.575l-3.158 6.082c-.868 1.67-3.022 3.053-4.906 3.15l-6.847.345c-1.104.054-2.809.837-3.577 1.631l-4.747 4.946c-1.03 1.078-2.77 1.775-4.429 1.775-.407 0-.798-.047-1.163-.132l-6.668-1.596a4.378 4.378 0 00-.989-.101c-1.05 0-2.216.264-2.906.659l-5.96 3.397c-.795.461-1.833.713-2.914.713z"/><path d="M160.516 81.986c-.534-1.34-.534-3.537 0-4.877l2.527-6.373c.534-1.34.24-3.37-.648-4.505l-4.224-5.4c-.887-1.139-1.507-3.242-1.375-4.68l.631-6.825c.136-1.437-.716-3.3-1.891-4.141l-5.572-3.994c-1.174-.84-2.36-2.685-2.639-4.102l-1.318-6.73c-.275-1.413-1.619-2.962-2.979-3.439l-6.476-2.262c-1.363-.477-3.022-1.914-3.689-3.196l-3.158-6.082c-.662-1.282-2.387-2.39-3.828-2.464l-6.848-.344c-1.442-.074-3.441-.985-4.441-2.027l-4.746-4.946c-1-1.043-2.965-1.62-4.368-1.283l-6.669 1.596c-1.402.337-3.576.024-4.829-.693L88.029 1.81c-1.251-.717-3.3-.717-4.553 0l-5.949 3.41c-1.251.72-3.426 1.03-4.829.693L66.03 4.316c-1.403-.336-3.372.24-4.372 1.283l-4.747 4.946c-1 1.042-2.995 1.953-4.436 2.027l-6.848.344c-1.442.074-3.165 1.182-3.828 2.464l-3.162 6.082c-.663 1.278-2.326 2.716-3.686 3.196l-6.47 2.262c-1.365.473-2.706 2.022-2.985 3.44l-1.317 6.729c-.276 1.417-1.465 3.261-2.64 4.102l-5.572 3.994c-1.174.84-2.026 2.704-1.89 4.14l.63 6.826c.133 1.438-.483 3.541-1.375 4.68l-4.224 5.4c-.887 1.14-1.178 3.165-.647 4.506l2.527 6.373c.535 1.34.535 3.536 0 4.876L8.46 88.36c-.53 1.34-.24 3.37.647 4.505l4.224 5.4c.887 1.135 1.508 3.242 1.376 4.68l-.632 6.825c-.135 1.437.717 3.301 1.891 4.141l5.572 3.994c1.175.841 2.36 2.685 2.64 4.102l1.317 6.726c.275 1.417 1.62 2.963 2.984 3.439l6.471 2.263c1.365.476 3.023 1.914 3.69 3.195l3.162 6.082c.666 1.283 2.39 2.39 3.828 2.46l6.847.345c1.442.073 3.442.984 4.438 2.026l4.747 4.947c1 1.042 2.964 1.619 4.37 1.282l6.67-1.596c1.402-.337 3.576-.023 4.829.693l5.947 3.41c1.252.72 3.301.72 4.553 0l5.949-3.41c1.252-.72 3.425-1.03 4.828-.693l6.669 1.596c1.403.337 3.372-.24 4.367-1.282l4.748-4.947c.999-1.042 2.994-1.953 4.44-2.026l6.847-.345c1.442-.073 3.166-1.182 3.829-2.46l3.159-6.082c.666-1.278 2.324-2.719 3.688-3.195l6.475-2.263c1.365-.476 2.705-2.025 2.981-3.439l1.317-6.726c.279-1.417 1.465-3.261 2.639-4.102l5.572-3.994c1.175-.84 2.027-2.704 1.892-4.141l-.632-6.825c-.136-1.438.484-3.541 1.375-4.68l4.225-5.4c.89-1.14 1.182-3.165.646-4.506l-2.53-6.373v.001z"/><path d="M85.75 19.238c-33.322 0-60.331 27.001-60.331 60.312 0 33.311 27.01 60.311 60.332 60.311 33.317 0 60.33-27 60.33-60.312 0-33.31-27.013-60.311-60.331-60.311zm0 97.294c-20.43 0-36.995-16.556-36.995-36.982 0-20.423 16.562-36.98 36.995-36.98 20.429 0 36.992 16.557 36.992 36.98.003 20.422-16.559 36.982-36.992 36.982z"/><path d="M24.314 100.409l-.383-1.232-1.29-.015 1.049-.748-.383-1.232 1.035.771 1.05-.747-.411 1.224 1.034.77-1.29-.015-.41 1.224zM22.9 95.66l-.29-1.26-1.288-.111 1.109-.663-.287-1.255.973.845 1.108-.663-.507 1.185.973.85-1.287-.114-.504 1.186zm-1.05-4.85l-.19-1.275-1.275-.212 1.154-.578-.19-1.275.904.919 1.155-.578-.597 1.147.907.922-1.275-.213-.594 1.142zm-.674-4.909l-.093-1.285-1.252-.31 1.198-.484-.094-1.286.83.983 1.197-.484-.682 1.096.83.988-1.252-.31-.682 1.093V85.9zm-.291-4.942l.008-1.29-1.224-.408 1.227-.39.009-1.29.751 1.046 1.228-.391-.763 1.037.752 1.05-1.225-.403-.763 1.04zm.086-4.955l.104-1.282-1.19-.5 1.256-.298.105-1.286.67 1.1 1.256-.298-.841.98.67 1.104-1.194-.5-.836.98zm.46-4.931l.201-1.275-1.15-.585 1.274-.201.202-1.275.585 1.15 1.275-.2-.914.91.585 1.15-1.151-.585-.907.91zm.837-4.873l.299-1.256-1.1-.67 1.286-.104.298-1.256.5 1.19 1.286-.105-.98.84.5 1.194-1.104-.67-.985.836v.001zm1.206-4.812l.391-1.228-1.046-.751 1.29-.008.39-1.228.408 1.224 1.291-.007-1.043.763.403 1.224-1.046-.756-1.038.767zm1.565-4.695l.484-1.193-.988-.829 1.287.089.484-1.194.314 1.252 1.286.094-1.096.681.31 1.251-.988-.829-1.093.678zm1.918-4.571l.574-1.154-.922-.903 1.275.19.573-1.154.213 1.27 1.279.19-1.144.596.213 1.275-.922-.903-1.14.593zm2.26-4.404l.662-1.108-.849-.973 1.26.287.663-1.108.115 1.287 1.26.286-1.185.507.115 1.287-.848-.973-1.194.508zm2.596-4.227l.744-1.053-.775-1.035 1.232.38.744-1.053.02 1.29 1.231.383-1.22.415.016 1.292-.772-1.033-1.22.414zm2.906-4.009l.822-.992-.69-1.088 1.197.476.822-.991-.081 1.285 1.2.477-1.25.318-.082 1.29-.69-1.089-1.248.314zm3.208-3.777l.9-.926-.605-1.14 1.158.567.896-.926-.179 1.275 1.163.569-1.275.224-.178 1.28-.605-1.14-1.275.217zm3.496-3.525l.965-.856-.515-1.182 1.112.655.965-.856-.275 1.259 1.112.654-1.283.124-.28 1.26-.515-1.182-1.286.124zm3.74-3.23l1.026-.78-.422-1.216 1.058.736 1.026-.778-.371 1.235 1.058.736-1.29.027-.373 1.236-.426-1.22-1.287.023zM49.15 26l1.085-.698-.33-1.247 1 .818 1.085-.698-.465 1.202 1 .817-1.286-.074-.47 1.205-.329-1.248L49.15 26zm4.189-2.63l1.135-.612-.236-1.271.938.888 1.131-.617-.554 1.166.934.887-1.279-.166-.558 1.166-.232-1.271-1.28-.17zm4.39-2.313l1.178-.526-.14-1.283.865.957 1.178-.527-.639 1.12.868.957-1.264-.264-.642 1.12-.14-1.282-1.264-.271zm4.545-1.972l1.214-.437-.039-1.29.79 1.018 1.214-.437-.725 1.065.79 1.018-1.239-.36-.73 1.07-.042-1.29-1.232-.357zm4.674-1.619l1.244-.34.062-1.29.71 1.076 1.243-.34-.806 1.01.71 1.076-1.21-.456-.806 1.007.059-1.29-1.206-.453zm4.802-1.255l1.266-.245.16-1.281.623 1.127 1.268-.244-.88.945.624 1.128-1.17-.546-.885.94.16-1.278-1.167-.546h.001zm4.882-.884l1.282-.147.256-1.262.536 1.173 1.282-.147-.95.871.54 1.175-1.125-.636-.953.872.256-1.263-1.124-.636zm4.926-.503l1.285-.046.353-1.24.446 1.213 1.29-.047-1.015.798.446 1.213-1.074-.72-1.015.797.352-1.24-1.068-.728zm4.955-.128l1.291.051.445-1.21.353 1.244 1.286.051-1.073.717.353 1.243-1.016-.802-1.073.717.446-1.209-1.011-.802h-.001zm4.942.252l1.282.147.539-1.17.256 1.263 1.282.147-1.124.636.256 1.263-.953-.872-1.124.635.534-1.173-.948-.876zm4.913.628l1.267.244.624-1.132.159 1.283 1.263.244-1.166.55.158 1.279-.883-.942-1.17.546.624-1.131-.876-.941zm4.855.999l1.245.34.709-1.08.061 1.287 1.244.34-1.209.457.063 1.29-.807-1.007-1.209.457.709-1.077-.806-1.007zm4.77 1.367l1.214.434.79-1.018-.039 1.29 1.213.433-1.236.365-.038 1.29-.729-1.066-1.24.364.791-1.022-.726-1.07zm4.643 1.72l1.178.528.865-.961-.136 1.282 1.177.523-1.259.268-.135 1.281-.648-1.115-1.263.267.865-.96-.644-1.112zm4.499 2.073l1.135.612.934-.886-.232 1.265 1.136.613-1.28.17-.232 1.271-.558-1.162-1.279.17.934-.89-.558-1.163zm4.336 2.41l1.085.697 1.001-.814-.331 1.247 1.086.698-1.287.073-.329 1.248-.469-1.202-1.287.075 1.001-.817-.47-1.206zm4.131 2.73l1.027.779 1.058-.736-.422 1.217 1.026.778-1.29-.027-.422 1.22-.372-1.236-1.29-.027 1.057-.736-.372-1.232zm3.91 3.041l.965.856 1.112-.654-.515 1.181.964.856-1.282-.123-.515 1.181-.28-1.263-1.282-.127 1.112-.651-.279-1.256zm3.674 3.336l.895.925 1.159-.565-.605 1.139.895.93-1.267-.225-.609 1.139-.178-1.278-1.275-.225 1.159-.566-.174-1.274zm3.395 3.602l.821.996 1.201-.476-.693 1.088.821.992-1.248-.318-.69 1.089-.081-1.286-1.252-.322 1.202-.473-.081-1.29zm3.115 3.86l.744 1.052 1.232-.383-.771 1.034.744 1.054-1.22-.415-.775 1.035.015-1.29-1.224-.415 1.231-.383.024-1.29zm2.794 4.074l.666 1.104 1.256-.294-.845.976.666 1.103-1.189-.499-.844.977.108-1.287-1.19-.5 1.255-.294.117-1.286zm2.503 4.28l.578 1.155 1.275-.194-.919.907.578 1.154-1.144-.593-.918.907.209-1.275-1.147-.593 1.275-.193.213-1.275zm2.166 4.455l.489 1.193 1.286-.096-.984.833.488 1.193-1.097-.678-.984.832.306-1.255-1.096-.681 1.286-.097.306-1.244zm1.818 4.607l.395 1.227 1.291.004-1.047.755.395 1.229-1.042-.76-1.046.755.403-1.227-1.043-.763 1.291.004.403-1.224zm1.46 4.73l.299 1.255 1.287.104-1.101.674.298 1.255-.98-.837-1.1.675.495-1.193-.98-.841 1.287.1.495-1.193zm1.094 4.833l.201 1.275 1.275.202-1.151.584.202 1.275-.911-.91-1.151.585.585-1.151-.914-.91 1.274.201.59-1.15zm.717 4.905l.104 1.282 1.256.298-1.19.497.105 1.285-.841-.976-1.19.496.671-1.1-.841-.98 1.255.298.671-1.1zm.336 4.94l.005 1.29 1.228.395-1.225.402.004 1.29-.763-1.038-1.225.403.756-1.05-.764-1.042 1.229.395.755-1.046zm-.038 4.958l-.093 1.286 1.197.488-1.251.306-.093 1.286-.682-1.097-1.253.31.834-.987-.682-1.097 1.193.488.83-.983zm-.419 4.935l-.189 1.275 1.154.577-1.275.213-.19 1.274-.596-1.143-1.272.213.907-.922-.597-1.146 1.155.577.903-.918zm-.794 4.884l-.287 1.26 1.109.662-1.287.112-.287 1.26-.508-1.186-1.286.116.972-.848-.507-1.186 1.108.663.973-.853zm-1.162 4.82l-.38 1.231 1.053.744-1.29.016-.384 1.232-.415-1.22-1.29.015 1.035-.771-.415-1.224 1.055.744 1.031-.768zm-1.524 4.706l-.472 1.202.995.82-1.286-.081-.473 1.201-.321-1.247-1.287-.081 1.089-.69-.322-1.251.996.821 1.081-.694zm-1.876 4.587l-.565 1.158.93.895-1.279-.178-.561 1.159-.229-1.271-1.279-.178 1.139-.605-.224-1.27.929.895 1.139-.605zm-2.223 4.436l-.651 1.115.86.965-1.263-.275-.652 1.112-.127-1.283-1.264-.275 1.183-.519-.129-1.286.857.964 1.186-.518zm-2.558 4.245l-.736 1.062.783 1.026-1.236-.372-.733 1.061-.031-1.29-1.237-.371 1.221-.427-.027-1.29.783 1.027 1.213-.426zm-2.868 4.037l-.813.999.701 1.081-1.205-.465-.814 1 .07-1.287-1.206-.464 1.248-.334.07-1.29.702 1.081 1.247-.321zm-3.177 3.808l-.887.937.616 1.131-1.167-.557-.887.937.166-1.278-1.163-.554 1.272-.236.171-1.279.616 1.135 1.263-.236zm-3.453 3.544l-.957.864.527 1.178-1.116-.643-.958.863.268-1.258-1.116-.644 1.283-.135.267-1.263.527 1.178 1.275-.14zm-3.724 3.277l-1.019.787.434 1.212-1.066-.728-1.019.787.36-1.236-1.065-.729 1.29-.039.365-1.239.434 1.216 1.286-.031zm-3.956 2.98l-1.077.708.341 1.243-1.008-.805-1.078.709.454-1.209-1.008-.805 1.29.061.454-1.209.341 1.244 1.291.063zm-4.174 2.668l-1.127.627.244 1.268-.946-.88-1.127.628.542-1.17-.942-.88 1.279.159.547-1.169.244 1.266 1.286.151zm-4.352 2.348l-1.17.538.151 1.282-.875-.949-1.175.539.632-1.124-.876-.949 1.267.252.632-1.123.151 1.282 1.263.252zm-4.534 2.015l-1.209.444.051 1.29-.798-1.01-1.209.449.713-1.073-.798-1.015 1.243.349.717-1.073.051 1.29 1.239.349zm-4.665 1.661l-1.244.353-.046 1.29-.722-1.073-1.239.352.794-1.015-.72-1.073 1.212.446.794-1.015-.046 1.289 1.217.446zm-4.786 1.298l-1.263.255-.148 1.283-.635-1.124-1.267.256.872-.953-.635-1.123 1.174.534.871-.949-.147 1.282 1.178.539zm-4.863.926l-1.279.159-.244 1.266-.546-1.169-1.283.158.941-.879-.546-1.17 1.132.623.942-.878-.245 1.266 1.128.624zm-4.925.549l-1.29.059-.342 1.243-.453-1.208-1.29.057 1.007-.805-.457-1.209 1.081.709 1.007-.805-.34 1.244 1.076.715zm-4.956.171l-1.291-.039-.434 1.213-.365-1.24-1.29-.039 1.066-.727-.364-1.24 1.022.79 1.067-.728-.434 1.212 1.022.798h.001zm-4.945-.205l-1.282-.136-.528 1.178-.267-1.262-1.283-.136 1.116-.647-.267-1.263.957.863 1.12-.643-.528 1.178.962.868zm-4.933-.589l-1.268-.233-.615 1.136-.171-1.278-1.266-.233 1.162-.557-.171-1.28.887.938 1.166-.558-.612 1.135.888.93zm-4.852-.953l-1.248-.329-.696 1.085-.07-1.287-1.249-.329 1.202-.469-.07-1.29.818 1 1.204-.469-.697 1.085.806 1.003zm-4.782-1.321l-1.216-.422-.78 1.026.027-1.29-1.216-.422 1.232-.375.027-1.29.74 1.057 1.237-.372-.779 1.031.728 1.057zm-4.657-1.681l-1.183-.515-.856.964.124-1.282-1.182-.515 1.26-.279.124-1.287.654 1.117 1.26-.279-.856.964.654 1.112h.001zm-4.515-2.03l-1.143-.604-.927.898.222-1.27-1.14-.604 1.276-.182.22-1.271.57 1.158 1.279-.182-.926.899.57 1.158zm-4.356-2.371l-1.088-.686-.992.826.317-1.251-1.092-.69 1.286-.085.318-1.248.476 1.201 1.29-.085-.991.825.476 1.193zm-4.162-2.692l-1.034-.771-1.05.748.41-1.224-1.034-.771 1.29.012.41-1.221.384 1.232 1.291.016-1.054.747.387 1.232zm-3.937-3.002l-.972-.848-1.109.662.504-1.189-.972-.845 1.282.112.504-1.185.29 1.259 1.287.116-1.108.663.294 1.255zm-3.697-3.304l-.902-.919-1.155.578.597-1.143-.903-.918 1.271.213.592-1.147.195 1.278 1.275.214-1.156.577.186 1.267zm-3.429-3.576l-.833-.984-1.194.485.683-1.093-.834-.988 1.252.31.682-1.097.093 1.287 1.252.31-1.198.484.097 1.286zm-3.146-3.823l-.756-1.046-1.228.395.763-1.042-.756-1.046 1.225.403.763-1.042-.004 1.29 1.229.403-1.23.395-.006 1.29zm-2.849-4.056l-.67-1.1-1.256.298.841-.98-.67-1.1 1.19.495.837-.98-.105 1.287 1.193.495-1.255.298-.105 1.287zm-2.534-4.262l-.586-1.146-1.274.205.911-.914-.59-1.147 1.151.582.911-.915-.202 1.274 1.152.585-1.275.205-.198 1.271zm-2.201-4.432l-.5-1.188-1.286.105.976-.841-.5-1.19 1.104.666.977-.844-.295 1.255 1.105.671-1.287.108-.294 1.258z"/><path d="M165.647 58.075H5.303v43.662h160.344V58.075z"/><path d="M169.913 80.063c0 12.268-4.266 20.043-4.266 20.043H5.303s-4.216-7.81-4.216-20.171c0-10.296 4.216-20.229 4.216-20.229h160.344c0-.004 4.266 11.188 4.266 20.357zM90.063 48.655l-2.298 2.236.55 3.161-2.844-1.495-2.837 1.495.543-3.161-2.294-2.236 3.174-.456 1.414-2.878 1.422 2.878 3.17.456zm7.998 2.274l-1.1-2.235-1.1 2.236-2.47.356 1.784 1.74-.424 2.455 2.21-1.161 2.209 1.161-.427-2.456 1.787-1.74-2.469-.355v-.001zm-22.972.133l-1.104-2.24-1.1 2.24-2.465.352 1.778 1.739-.417 2.46 2.204-1.163 2.21 1.162-.427-2.46 1.786-1.739-2.465-.352zm5.794 59.381l2.301-2.239-.55-3.157 2.84 1.495 2.841-1.495-.543 3.157 2.29 2.239-3.168.457-1.42 2.878-1.417-2.878-3.174-.457zm-7.998-2.274l1.1 2.235 1.104-2.235 2.465-.356-1.778-1.739.418-2.456-2.209 1.162-2.204-1.162.426 2.456-1.787 1.739 2.465.356zm22.975-.131l1.1 2.239 1.105-2.239 2.465-.356-1.783-1.74.423-2.456-2.21 1.162-2.209-1.162.427 2.456-1.787 1.74 2.47.356zM61.674 113.422L50.2 122.606l-3.124-3.141c1.306-1.871 2.864-3.924 4.674-6.163-.968.766-3.015 2.332-6.131 4.702l-3.107-3.122 9.238-11.428 2.434 2.444-3.349 3.863-3.239 3.731c1.9-1.705 4.499-3.831 7.8-6.377l2.6 2.611c-.267.337-1.317 1.561-3.142 3.672l-3.666 4.199c2.6-2.308 5.287-4.515 8.057-6.616l2.429 2.441zm6.557 3.214l-5.227 13.791-3.183-1.739 1.094-2.395-1.112-.607-1.446 2.2-3.22-1.759 8.6-11.95 4.494 2.459zm-6.158 7.341a197.717 197.717 0 012.468-5.644c-1.658 2.282-2.84 3.967-3.54 5.055l1.073.589h-.001zm8.91-6.035l2.417.673c1.612.449 2.686.822 3.22 1.117.535.293.904.763 1.112 1.409.206.647.144 1.573-.193 2.77-.307 1.096-.64 1.794-1 2.099-.36.307-.922.392-1.694.26.629.368 1.016.736 1.163 1.105.148.367.217.681.202.952-.012.268-.178.968-.497 2.104l-1.038 3.711-3.174-.887 1.306-4.676c.21-.752.287-1.236.225-1.445-.062-.21-.325-.383-.798-.515l-1.775 6.345-3.418-.957 3.941-14.065zm2.743 3.362l-.876 3.13c.384.108.67.127.856.058.186-.07.364-.414.539-1.034l.217-.775c.124-.446.132-.759.023-.941-.112-.183-.364-.33-.76-.438zm6.684-.957l2.511.085c1.674.058 2.806.163 3.391.322.589.158 1.058.527 1.414 1.107.353.582.512 1.496.47 2.739-.04 1.136-.198 1.895-.473 2.278-.28.384-.807.597-1.582.651.698.209 1.16.476 1.392.798.232.321.371.612.422.875.05.264.054.985.016 2.162l-.133 3.851-3.293-.113.166-4.849c.028-.783-.015-1.268-.123-1.457-.109-.19-.407-.294-.895-.311l-.226 6.582-3.544-.12.488-14.6h-.001zm3.46 2.619l-.112 3.246c.4.015.682-.035.845-.147.163-.112.256-.488.28-1.131l.027-.802c.015-.466-.051-.771-.202-.918-.147-.151-.427-.233-.837-.248zm12.261-3.726l4.841 13.93-3.557.705-.699-2.538-1.243.249.302 2.619-3.6.712-1.073-14.681 5.03-.996zm-.015 9.58a182.297 182.297 0 01-1.724-5.912c.19 2.813.368 4.866.527 6.152l1.197-.24zm10.184-13.616l6.033 13.302-2.832 1.283-4.426-5.288 2.744 6.047-2.701 1.224-6.033-13.302 2.7-1.224 4.53 5.167-2.716-5.989 2.701-1.22zm7.235-5.292l1.759 2.336-1.682 1.266 7.029 9.336-2.836 2.134-7.029-9.331-1.678 1.263-1.76-2.336 6.197-4.668zm6.075-6.904l5.402 8.023 4.019 3.436-2.139 2.498-4.018-3.435-8.708-4.165 2.12-2.475c2.499 1.468 4.146 2.495 4.937 3.088-1.058-1.163-2.302-2.662-3.732-4.495l2.119-2.475zM50.878 35.891l9.382 11.312-3.116 3.211c-1.899-1.266-3.984-2.785-6.258-4.55.782.956 2.383 2.97 4.805 6.05l-3.096 3.196-11.61-9.015 2.425-2.498 3.926 3.277 3.794 3.164c-1.74-1.87-3.91-4.43-6.51-7.689l2.592-2.673c.34.264 1.585 1.287 3.732 3.072l4.266 3.583a132.283 132.283 0 01-6.758-7.94l2.426-2.5zm9.9-5.884l8.948 11.73-3.192 1.794-1.454-2.197-1.116.628 1.1 2.393-3.231 1.817-5.565-13.628 4.51-2.537zm2.95 9.115a181.404 181.404 0 01-3.484-5.083c1.054 2.62 1.857 4.514 2.406 5.687l1.078-.604zm2.988-11.784l2.441-.697c1.628-.465 2.748-.713 3.36-.744.612-.03 1.178.175 1.697.616.52.442.95 1.263 1.29 2.46.31 1.093.392 1.864.245 2.313-.148.45-.59.817-1.322 1.108.732-.016 1.26.092 1.581.326.322.232.546.468.675.705.127.235.356.917.678 2.052l1.058 3.703-3.201.915-1.333-4.668c-.214-.751-.403-1.201-.566-1.348-.163-.147-.48-.155-.958-.02l1.81 6.334-3.448.984-4.007-14.039zm4.134 1.422l.892 3.122c.387-.113.643-.244.767-.403.123-.159.096-.546-.082-1.161l-.22-.771c-.128-.446-.287-.717-.477-.814-.19-.097-.481-.086-.88.027zm8.855-4.448l2.534-.092c1.69-.063 2.837-.036 3.441.081.605.116 1.105.453 1.504 1.007.4.554.62 1.453.666 2.696.043 1.135-.066 1.906-.317 2.305-.252.4-.768.654-1.55.759.716.163 1.2.391 1.456.698.257.302.42.585.485.844.07.26.124.98.17 2.158l.14 3.85-3.328.12-.18-4.85c-.026-.782-.104-1.262-.228-1.444-.124-.183-.43-.264-.926-.244l.24 6.58-3.58.133-.527-14.6v-.001zm3.674 2.367l.12 3.246c.402-.015.682-.085.84-.205.16-.124.225-.508.202-1.15l-.031-.802c-.016-.461-.105-.763-.268-.902-.163-.14-.452-.202-.863-.187zm15.566-1.018l-.814 14.728-3.597-.71.319-2.614-1.26-.248-.72 2.533-3.636-.716 4.616-13.98 5.092 1.007zm-3.682 8.847c.144-1.658.357-3.7.651-6.125-.898 2.673-1.519 4.638-1.86 5.889l1.21.236zm17.206-3.692L106.385 44.1l-2.856-1.31 1.07-6.813-2.767 6.038-2.725-1.248 6.084-13.282 2.725 1.247-.911 6.819 2.74-5.982 2.724 1.248v-.001zm10.075 7.094l-1.779 2.32-1.689-1.294-7.107 9.275-2.844-2.178 7.106-9.275-1.681-1.289 1.779-2.32 6.215 4.761zm8.371 9.227l-8.821 3.993-4.049 3.402-2.135-2.541 4.05-3.402 5.517-7.925 2.12 2.522c-1.852 2.227-3.134 3.684-3.848 4.37 1.321-.853 3.003-1.83 5.053-2.94l2.113 2.522v-.001z"/><path d="M26.322 66.56v22.015h4.897v5.509H18.265V66.56h8.057zm15.693 0v27.524H33.96V66.56h8.057zm4.015 0h13.645v5.509h-5.588v5.217h4.975v5.238h-4.976v11.56H46.03V66.56zm16.38 0h13.435v5.509h-5.378v5.217H75.5v5.238h-5.034v6.051h5.914v5.509H62.41V66.56zm32.784 0v5.509h-4.787v22.015h-8.056V72.069h-4.765V66.56h17.608zm10.675 0v27.524h-8.056V66.56h8.056zm28.874 0v27.524h-7.041l-.008-18.584-2.802 18.584h-4.995l-2.956-18.157-.008 18.157h-7.041V66.56h10.424c.31 1.654.627 3.607.957 5.853l1.143 7 1.852-12.854h10.475v.001zm4.019 0h13.434v5.509h-5.378v5.217h5.034v5.238h-5.034v6.051h5.913v5.509h-13.969V66.56z"/><defs><linearGradient id="ga" x1="112.92" y1="4.926" x2="58.613" y2="154.182" gradientUnits="userSpaceOnUse"><stop stop-color="#F5B047"/><stop offset="1" stop-color="#FFCF6E"/></linearGradient><linearGradient id="gb" x1="112.48" y1="152.964" x2="59.051" y2="6.122" gradientUnits="userSpaceOnUse"><stop stop-color="#DE6E00"/><stop offset="1" stop-color="#FFEB91"/></linearGradient><linearGradient id="gc" x1="108.353" y1="141.61" x2="63.179" y2="17.456" gradientUnits="userSpaceOnUse"><stop stop-color="#FFE672"/><stop offset=".616" stop-color="#EDA117"/></linearGradient><linearGradient id="gd" x1="5.302" y1="79.904" x2="165.647" y2="79.904" gradientUnits="userSpaceOnUse"><stop stop-color="#B86300"/><stop offset=".335" stop-color="#DE8A00"/><stop offset=".758" stop-color="#FFFFBA"/><stop offset="1" stop-color="#B86300"/></linearGradient><linearGradient id="ge" x1="1.087" y1="79.904" x2="169.911" y2="79.904" gradientUnits="userSpaceOnUse"><stop stop-color="#F5B536"/><stop offset=".44" stop-color="#FFEB87"/><stop offset=".582" stop-color="#FFEB87"/><stop offset="1" stop-color="#F5B536"/></linearGradient></defs></svg></svg>