<svg width="151" height="50" viewBox="0 0 151 50" fill="none" xmlns="http://www.w3.org/2000/svg">
<g clip-path="url(#clip0_2509_7)">
<path d="M46.75 0H145.5C146.826 0 148.098 0.526784 149.036 1.46447C149.973 2.40215 150.5 3.67392 150.5 5V45C150.5 46.3261 149.973 47.5979 149.036 48.5355C148.098 49.4732 146.826 50 145.5 50H46.75V0Z" fill="#0C8543"/>
<path d="M63.4413 25C65.0804 24.9082 66.6945 25.4341 67.965 26.4738C68.509 26.9547 68.9398 27.5501 69.2264 28.2173C69.513 28.8845 69.6483 29.6068 69.6225 30.3325C69.6511 31.0574 69.5176 31.7794 69.2318 32.4461C68.9459 33.1128 68.5148 33.7073 67.97 34.1863C66.6933 35.2166 65.0792 35.7356 63.4413 35.6425H60.6263V39.3463L62.415 39.69V41.6963H55.5V39.69L57.2775 39.3463V27.3625L55.5 27.0238V25.005H63.4413V25ZM60.6263 33.0613H63.4413C63.8292 33.0907 64.2189 33.0381 64.5851 32.9067C64.9512 32.7753 65.2856 32.5681 65.5663 32.2988C66.0502 31.7698 66.3062 31.0714 66.2788 30.355C66.3059 29.6251 66.0508 28.9128 65.5663 28.3663C65.2893 28.0902 64.9562 27.8771 64.5895 27.7415C64.2228 27.6058 63.8311 27.5507 63.4413 27.58H60.6263V33.0613ZM78.5488 41.6963C78.4565 41.4889 78.3759 41.2765 78.3075 41.06C78.2394 40.8443 78.1859 40.6242 78.1475 40.4013C77.7433 40.8652 77.2503 41.2435 76.6975 41.5138C76.0877 41.8054 75.4183 41.9505 74.7425 41.9375C73.6855 41.9931 72.648 41.6375 71.8475 40.945C71.4858 40.598 71.2029 40.1774 71.0179 39.7116C70.8328 39.2457 70.75 38.7456 70.775 38.245C70.7545 37.7131 70.8726 37.185 71.1179 36.7125C71.3631 36.24 71.727 35.8394 72.1738 35.55C73.419 34.8367 74.8467 34.5059 76.2788 34.5988H77.9875V33.3838C78.0029 33.1293 77.965 32.8744 77.8761 32.6354C77.7872 32.3965 77.6493 32.1788 77.4713 31.9963C77.0467 31.6394 76.4994 31.4626 75.9463 31.5038C75.6017 31.4986 75.2582 31.5428 74.9263 31.635C74.6712 31.7037 74.4277 31.8099 74.2038 31.95L73.985 33.2738H71.4625L71.4738 30.5238C72.1286 30.0893 72.8354 29.7386 73.5775 29.48C74.4087 29.1906 75.2837 29.0472 76.1637 29.0563C77.5055 28.9925 78.8287 29.3895 79.9138 30.1813C80.3922 30.5642 80.7724 31.0557 81.0226 31.6151C81.2729 32.1746 81.386 32.7856 81.3525 33.3975V38.5225C81.3525 38.7134 81.3525 38.8929 81.3525 39.0613C81.3557 39.2224 81.3691 39.3831 81.3925 39.5425L82.4125 39.68V41.6963H78.5488ZM75.6475 39.46C76.1257 39.4662 76.598 39.3541 77.0225 39.1338C77.4051 38.942 77.7357 38.6607 77.9863 38.3138V36.4213H76.2788C75.696 36.3796 75.1188 36.558 74.6613 36.9213C74.4877 37.0688 74.3485 37.2526 74.2535 37.4597C74.1584 37.6668 74.1099 37.8922 74.1113 38.12C74.1015 38.3044 74.133 38.4886 74.2035 38.6592C74.274 38.8298 74.3817 38.9826 74.5188 39.1063C74.8388 39.3588 75.2406 39.4847 75.6475 39.46V39.46ZM83.8013 39.6888L85.4063 39.345V31.6488L83.6288 31.3075V29.2888H88.525L88.6738 31.1C88.9214 30.5161 89.3075 30.0012 89.7988 29.6C90.2523 29.2425 90.8151 29.0523 91.3925 29.0613C91.5786 29.0619 91.7645 29.0753 91.9488 29.1013C92.1134 29.1219 92.2763 29.1544 92.4363 29.1988L92.0813 32.2488L90.7063 32.2138C90.2828 32.1977 89.863 32.2966 89.4913 32.5C89.1702 32.6911 88.9144 32.9747 88.7575 33.3138V39.345L90.3625 39.6888V41.6963H83.8013V39.6888ZM98.6513 26.2488V29.2875H100.83V31.6388H98.6513V37.9575C98.6159 38.3272 98.7227 38.6964 98.95 38.99C99.0548 39.0948 99.1803 39.1765 99.3185 39.2299C99.4567 39.2833 99.6045 39.3072 99.7525 39.3C99.9532 39.3022 100.154 39.2934 100.354 39.2738C100.525 39.2546 100.718 39.2221 100.933 39.1763L101.219 41.5963C100.854 41.7084 100.483 41.7944 100.106 41.8538C99.7116 41.9132 99.3129 41.9421 98.9138 41.94C98.4279 41.9717 97.9408 41.9037 97.4823 41.7401C97.0237 41.5765 96.6035 41.3208 96.2475 40.9888C95.5536 40.1434 95.2192 39.0594 95.3163 37.97V31.64H93.4913V29.2888H95.3163V26.25L98.6513 26.2488ZM102.286 39.69L103.891 39.3463V31.6488L102.114 31.305V29.2863H107.01L107.159 31.0638C107.543 30.4572 108.066 29.9504 108.684 29.585C109.301 29.2299 110.002 29.0476 110.714 29.0575C111.26 29.0273 111.806 29.1174 112.313 29.3215C112.821 29.5256 113.277 29.8388 113.65 30.2388C114.44 31.304 114.815 32.6207 114.705 33.9425V39.3438L116.31 39.6875V41.6963H109.913V39.69L111.346 39.3463V33.9563C111.41 33.3238 111.231 32.6908 110.846 32.185C110.641 31.9987 110.4 31.8563 110.138 31.7667C109.875 31.677 109.598 31.642 109.321 31.6638C108.908 31.6571 108.499 31.7497 108.129 31.9338C107.778 32.1132 107.475 32.3748 107.246 32.6963V39.3475L108.6 39.6913V41.6963H102.286V39.69ZM123.203 41.94C122.406 41.9759 121.612 41.8409 120.872 41.5442C120.132 41.2476 119.465 40.7961 118.914 40.22C117.826 39.0287 117.249 37.4574 117.309 35.845V35.3863C117.244 33.7343 117.785 32.1155 118.829 30.8338C119.327 30.2457 119.954 29.7797 120.66 29.4715C121.367 29.1634 122.135 29.0213 122.905 29.0563C123.626 29.0141 124.347 29.1279 125.02 29.3897C125.693 29.6516 126.301 30.0555 126.804 30.5738C127.774 31.7099 128.271 33.1755 128.191 34.6675V36.4913H120.784L120.761 36.56C120.793 37.3074 121.083 38.0208 121.581 38.5788C121.835 38.8451 122.142 39.0536 122.484 39.1902C122.825 39.3267 123.192 39.3881 123.559 39.37C124.182 39.3859 124.804 39.3114 125.405 39.1488C125.963 38.9698 126.501 38.7335 127.01 38.4438L127.916 40.5075C127.316 40.9571 126.643 41.3007 125.926 41.5238C125.047 41.8094 124.127 41.9492 123.203 41.9375V41.94ZM122.904 31.6425C122.62 31.633 122.338 31.6928 122.082 31.8168C121.826 31.9407 121.605 32.125 121.436 32.3538C121.048 32.9064 120.818 33.5548 120.771 34.2288L120.806 34.2863H124.911V33.9875C124.942 33.3798 124.766 32.7795 124.411 32.285C124.229 32.0658 123.998 31.8931 123.736 31.7809C123.474 31.6688 123.189 31.6205 122.905 31.64L122.904 31.6425ZM130.029 39.6925L131.634 39.3488V31.6488L129.854 31.3075V29.2888H134.75L134.899 31.1C135.146 30.5161 135.533 30.0012 136.024 29.6C136.477 29.2425 137.04 29.0523 137.618 29.0613C137.804 29.0619 137.989 29.0753 138.174 29.1013C138.338 29.1219 138.501 29.1544 138.661 29.1988L138.306 32.2488L136.931 32.2138C136.508 32.1977 136.088 32.2966 135.716 32.5C135.395 32.6911 135.139 32.9747 134.983 33.3138V39.345L136.588 39.6888V41.6963H130.026L130.029 39.6925Z" fill="white"/>
<path d="M47.375 49.375H5.5C3.08761 49.375 1.125 47.4124 1.125 45V5C1.125 2.58761 3.08761 0.625 5.5 0.625H47.375V49.375Z" fill="white"/>
<path d="M5.5 1.25C3.43224 1.25 1.75 2.93224 1.75 5V45C1.75 47.0678 3.43224 48.75 5.5 48.75H46.75V1.25H5.5ZM5.5 0H48V50H5.5C2.73857 50 0.5 47.7614 0.5 45V5C0.5 2.23857 2.73857 0 5.5 0Z" fill="#0C8543"/>
</g>
<rect x="1.5" y="1" width="148" height="48" rx="7" stroke="white" stroke-width="2"/>
<defs>
<clipPath id="clip0_2509_7">
<rect x="0.5" width="150" height="50" rx="8" fill="white"/>
</clipPath>
</defs>
</svg>
