<svg width="60" height="60" viewBox="0 0 60 60" fill="none" xmlns="http://www.w3.org/2000/svg">
<g clip-path="url(#clip0_48_400)">
<path fill-rule="evenodd" clip-rule="evenodd" d="M56.3415 5.14307H2.92683C1.31707 5.14307 0 6.34307 0 7.80973V43.1431C0 44.6097 1.31707 45.8097 2.92683 45.8097H27.9366L26.0261 50.3931L26.0268 50.3904C25.931 50.6224 25.8622 50.8844 25.8615 51.1871C25.8615 51.4224 25.9061 51.6817 26.0195 51.9397C26.1849 52.3277 26.5288 52.6877 26.9217 52.8911C27.3146 53.0997 27.7207 53.1677 28.0676 53.1677C28.2234 53.1677 28.3749 53.1537 28.5212 53.1297L28.5198 53.1304L30.9198 52.7384L32.4278 54.4824L32.4285 54.4831C32.6012 54.6817 32.8215 54.8757 33.1185 55.0344C33.4127 55.1911 33.7976 55.3071 34.2161 55.3064C34.7437 55.3124 35.2705 55.1077 35.6122 54.8324C35.9627 54.5564 36.1617 54.2391 36.2868 53.9431V53.9424L37.8849 50.1084L39.4829 53.9424V53.9431C39.6073 54.2391 39.8078 54.5564 40.1576 54.8324C40.4993 55.1077 41.0268 55.3124 41.5537 55.3064C41.9722 55.3071 42.3563 55.1911 42.6512 55.0344C42.9483 54.8757 43.1693 54.6817 43.3412 54.4831L43.3419 54.4824L44.85 52.7384L47.25 53.1304L47.2485 53.1297C47.3941 53.1537 47.5456 53.1677 47.7022 53.1677C47.9349 53.1677 48.1895 53.1377 48.4537 53.0557C48.8473 52.9371 49.2622 52.6751 49.53 52.3137C49.8029 51.9544 49.9112 51.5377 49.9083 51.1877C49.9076 50.8857 49.8388 50.6231 49.7429 50.3924L47.8332 45.8104H56.3415C57.9512 45.8104 59.2683 44.6104 59.2683 43.1437V7.8104C59.2683 6.34307 57.9512 5.14307 56.3415 5.14307ZM51.7178 42.4764L48.791 39.8097H51.9066L54.8341 42.4764H51.7178ZM37.6829 42.4764C33.8502 42.4764 30.7317 39.6351 30.7317 36.1431C30.7317 32.6511 33.8502 29.8097 37.6829 29.8097C41.5156 29.8097 44.6341 32.6511 44.6341 36.1431C44.6341 39.6351 41.5156 42.4764 37.6829 42.4764ZM37.6829 26.4764C31.8212 26.4764 27.0732 30.8044 27.0732 36.1431C27.0732 36.7124 27.1376 37.2677 27.2415 37.8097H8.78049V13.1431H50.4878V37.8097H48.1244C48.2283 37.2677 48.2927 36.7124 48.2927 36.1431C48.2927 30.8044 43.5446 26.4764 37.6829 26.4764ZM52.6829 39.1024V36.0964L55.6098 38.7631V41.7684L52.6829 39.1024ZM52.6829 34.6831V31.8564L55.6098 34.5237V37.3497L52.6829 34.6831ZM3.65854 42.4764V8.4764H55.6098V33.1091L52.6829 30.4417V11.8097C52.6829 11.4431 52.3537 11.1431 51.9512 11.1431H7.31707C6.91463 11.1431 6.58537 11.4431 6.58537 11.8097V39.1431C6.58537 39.5097 6.91463 39.8097 7.31707 39.8097H27.8678C28.2615 40.6844 28.7905 41.4931 29.4337 42.2164L29.3254 42.4764H3.65854ZM33.7537 50.6311L33.5656 50.4131C33.2188 50.0197 32.8346 49.7911 32.438 49.6237C32.0385 49.4617 31.6178 49.3617 31.1239 49.3591C30.9702 49.3597 30.8034 49.3704 30.6227 49.4011L30.6329 49.3991L30.3329 49.4477L32.3905 44.5131C33.4376 45.0637 34.5951 45.4544 35.8288 45.6531L33.7537 50.6311ZM45.1456 49.4011C44.9649 49.3704 44.798 49.3597 44.6444 49.3597C44.1505 49.3624 43.7298 49.4617 43.3302 49.6237C42.9337 49.7911 42.5502 50.0197 42.2027 50.4131L42.0146 50.6311L39.9139 45.5911C41.1366 45.3524 42.2759 44.9171 43.3024 44.3311L45.4346 49.4471L45.1354 49.3984L45.1456 49.4011ZM46.1993 41.8911C46.6815 41.2991 47.0971 40.6611 47.4219 39.9764L50.1658 42.4764H46.4429L46.1993 41.8911ZM16.0976 18.8097H36.5854C37.192 18.8097 37.6829 19.2577 37.6829 19.8097C37.6829 20.3617 37.192 20.8097 36.5854 20.8097H16.0976C15.491 20.8097 15 20.3617 15 19.8097C15 19.2577 15.491 18.8097 16.0976 18.8097ZM16.0976 25.4763H24.1463C24.7529 25.4763 25.2439 25.9243 25.2439 26.4763C25.2439 27.0283 24.7529 27.4763 24.1463 27.4763H16.0976C15.491 27.4763 15 27.0283 15 26.4763C15 25.9243 15.491 25.4763 16.0976 25.4763ZM33.6585 36.143C33.6585 34.1184 35.4593 32.4764 37.6829 32.4764C39.9066 32.4764 41.7073 34.1184 41.7073 36.143C41.7073 38.1677 39.9066 39.8097 37.6829 39.8097C35.4593 39.8097 33.6585 38.1677 33.6585 36.143ZM35.8537 36.143C35.8537 37.0624 36.6746 37.8097 37.6829 37.8097C38.6912 37.8097 39.5122 37.0624 39.5122 36.143C39.5122 35.2237 38.6912 34.4764 37.6829 34.4764C36.6746 34.4764 35.8537 35.2237 35.8537 36.143Z" fill="#0C8543"/>
</g>
<defs>
<clipPath id="clip0_48_400">
<rect width="60" height="60" fill="white"/>
</clipPath>
</defs>
</svg>
